<svg width="300" height="300" viewBox="0 0 300 300" fill="none" xmlns="http://www.w3.org/2000/svg">
<path d="M0 60C0 26.8629 26.8629 0 60 0H240C273.137 0 300 26.8629 300 60V240C300 273.137 273.137 300 240 300H60C26.8629 300 0 273.137 0 240V60Z" fill="url(#paint0_linear_2222_2424)"/>
<path d="M151.469 19.6797C155.007 22.1534 158.47 24.702 162.158 26.9508C175.633 35.4963 189.184 43.8919 202.734 52.3624C203.637 52.9621 204.691 53.3369 206.498 54.2364C206.498 49.364 206.498 45.1662 206.498 40.5936C215.682 40.5936 224.113 40.5936 233.071 40.5936C233.071 50.7133 233.071 60.758 233.071 71.1025C237.588 74.026 241.954 76.8745 246.321 79.648C253.096 83.9207 259.871 88.0436 266.571 92.3913C267.625 93.0659 268.679 94.6401 268.754 95.8394C268.905 105.284 268.829 114.804 268.829 125.374C229.232 100.637 190.237 76.3497 151.017 51.8377C111.345 76.5746 71.8981 101.237 32 126.198C32 115.329 32 105.135 32 94.6401C38.3235 90.6672 44.7222 86.5444 51.121 82.5715C74.2318 68.1041 97.3426 53.5618 120.529 39.0944C129.713 33.3225 138.972 27.7004 148.156 22.0035C149.06 21.4038 149.812 20.5792 150.64 19.8296C150.942 19.6797 151.243 19.6797 151.469 19.6797Z" fill="white"/>
<path d="M200.63 228.892C196.264 220.047 192.124 211.726 188.059 203.48C163.292 203.48 138.976 203.48 113.984 203.48C109.843 211.801 105.552 220.421 101.261 228.967C91.2493 228.967 81.5382 228.967 70.9238 228.967C97.7233 174.321 124.222 120.124 151.096 65.4033C177.821 120.124 204.244 174.246 230.968 228.892C220.278 228.892 210.492 228.892 200.63 228.892ZM151.623 128.67C151.247 128.67 150.871 128.745 150.494 128.745C142.74 144.562 134.987 160.378 127.007 176.794C143.418 176.794 158.85 176.794 175.186 176.794C167.056 160.303 159.302 144.487 151.623 128.67Z" fill="white"/>
<path d="M234.128 236.464C238.419 245.384 242.559 253.93 246.926 263C182.712 263 119.101 263 54.9629 263C59.4044 254.005 63.6953 245.234 67.9862 236.464C123.543 236.464 178.647 236.464 234.128 236.464Z" fill="white"/>
<defs>
<linearGradient id="paint0_linear_2222_2424" x1="-7.05615" y1="299.969" x2="305.922" y2="299.974" gradientUnits="userSpaceOnUse">
<stop stop-color="#FF636E"/>
<stop offset="0.380208" stop-color="#FF766E"/>
<stop offset="0.697917" stop-color="#FC8E70"/>
<stop offset="1" stop-color="#FCAB73"/>
</linearGradient>
</defs>
</svg>
