<svg width="294" height="127" viewBox="0 0 294 127" fill="none" xmlns="http://www.w3.org/2000/svg">
<path fill-rule="evenodd" clip-rule="evenodd" d="M41.5714 0.964258H0.177734V46.5226H13.0985V12.0143H28.6527V46.5226H41.5714V0.964258ZM0.177734 126.8H13.0985V110.335C17.0173 113.131 20.4069 114.598 27.2923 114.598C38.0881 114.598 48.0319 106.266 48.0319 91.0518C48.0319 75.6663 37.9173 67.3372 27.2923 67.3372C21.1235 67.3372 17.336 69.1351 13.0985 72.4663V68.1872H0.177734V126.8ZM23.9777 103.633C17.9423 103.633 12.9277 98.6163 12.9277 91.0518C12.9277 83.3163 17.9423 78.3018 23.9777 78.3018C30.0131 78.3018 35.111 83.3163 35.111 90.883C35.111 98.7018 30.0131 103.633 23.9777 103.633ZM48.3298 58.3268H61.2506V43.1101C65.1694 45.9059 68.561 47.3726 75.4464 47.3726C86.2402 47.3726 96.1839 39.0413 96.1839 23.8288C96.1839 8.44336 86.0694 0.114258 75.4464 0.114258C69.2756 0.114258 65.4881 1.91216 61.2506 5.24336V0.964258H48.3298V58.3268ZM72.1298 36.408C66.0944 36.408 61.0798 31.3913 61.0798 23.8288C61.0798 16.0934 66.0944 11.0788 72.1298 11.0788C78.1652 11.0788 83.2652 16.0934 83.2652 23.658C83.2652 31.4768 78.1652 36.408 72.1298 36.408ZM123.259 47.5434C137.455 47.5434 147.994 36.9184 147.994 23.8288C147.994 10.5684 137.538 0.114258 123.43 0.114258C109.236 0.114258 98.6944 10.7393 98.6944 23.8288C98.6944 37.0893 109.151 47.5434 123.259 47.5434ZM123.43 36.408C116.29 36.408 111.444 30.5434 111.444 23.8288C111.444 16.9434 115.865 11.2476 123.259 11.2476C130.399 11.2476 135.244 17.1143 135.244 23.8288C135.244 30.7143 130.824 36.408 123.43 36.408ZM174.049 47.5434C183.142 47.5434 188.242 44.058 192.661 39.2122L185.099 31.5622C181.953 34.5372 178.978 36.408 174.642 36.408C167.588 36.408 163.082 30.7976 163.082 23.8288C163.082 16.9434 167.674 11.2476 174.132 11.2476C179.234 11.2476 181.953 13.1184 184.759 15.7538L192.321 8.10176C188.074 3.34336 182.803 0.114258 174.217 0.114258C160.278 0.114258 150.332 10.8226 150.332 23.8288C150.332 37.0038 160.363 47.5434 174.049 47.5434ZM234.292 0.964258H194.174V12.0143H207.688V46.5226H220.776V12.0143H234.292V0.964258ZM258.901 47.5434C273.094 47.5434 283.634 36.9184 283.634 23.8288C283.634 10.5684 273.18 0.114258 259.069 0.114258C244.876 0.114258 234.336 10.7393 234.336 23.8288C234.336 37.0893 244.79 47.5434 258.901 47.5434ZM259.069 36.408C251.932 36.408 247.086 30.5434 247.086 23.8288C247.086 16.9434 251.507 11.2476 258.901 11.2476C266.04 11.2476 270.884 17.1143 270.884 23.8288C270.884 30.7143 266.465 36.408 259.069 36.408ZM74.3402 114.766C82.586 114.766 88.7069 111.535 92.9548 106.266L85.561 99.7205C81.9902 103.037 78.8464 104.398 74.511 104.398C68.7319 104.398 64.6506 101.337 63.3756 95.4726H95.0819C95.1652 94.2809 95.2506 93.0913 95.2506 92.0726C95.2506 79.1518 88.2819 67.3372 73.0673 67.3372C59.8069 67.3372 50.5402 78.0476 50.5402 91.0518C50.5402 105.16 60.6569 114.766 74.3402 114.766ZM63.2069 87.3955C64.2256 81.5309 67.7131 77.708 73.0673 77.708C78.5069 77.708 81.9069 81.6163 82.6714 87.3955H63.2069ZM98.8548 113.745H111.605V86.6309L124.099 105.077L136.763 86.3768V113.745H149.855V68.1872H136.763L124.269 87.3122L111.944 68.1872H98.8548V113.745ZM178.967 114.766C193.163 114.766 203.703 104.141 203.703 91.0518C203.703 77.7913 193.246 67.3372 179.138 67.3372C164.942 67.3372 154.403 77.9622 154.403 91.0518C154.403 104.312 164.859 114.766 178.967 114.766ZM179.138 103.633C171.999 103.633 167.153 97.7663 167.153 91.0518C167.153 84.1663 171.574 78.4726 178.967 78.4726C186.107 78.4726 190.953 84.3372 190.953 91.0518C190.953 97.9372 186.532 103.633 179.138 103.633ZM249.986 68.1872H237.065V85.6976H221.171V68.1872H208.251V113.745H221.171V96.3226H237.065V113.745H249.986V68.1872ZM293.559 68.1872H253.44V79.2372H266.955V113.745H280.044V79.2372H293.559V68.1872Z" fill="url(#paint0_linear_2205_2329)"/>
<defs>
<linearGradient id="paint0_linear_2205_2329" x1="-6.72274" y1="126.787" x2="299.35" y2="126.798" gradientUnits="userSpaceOnUse">
<stop stop-color="#FF636E"/>
<stop offset="0.380208" stop-color="#FF766E"/>
<stop offset="0.697917" stop-color="#FC8E70"/>
<stop offset="1" stop-color="#FCAB73"/>
</linearGradient>
</defs>
</svg>
