<svg width="153" height="67" viewBox="0 0 153 67" fill="none" xmlns="http://www.w3.org/2000/svg">
<path fill-rule="evenodd" clip-rule="evenodd" d="M21.587 0.449538H0V24.5439H6.73825V6.29355H14.8499V24.5439H21.587V0.449538ZM0 67H6.73825V58.2922C8.78193 59.7709 10.5496 60.5468 14.1404 60.5468C19.7705 60.5468 24.9562 56.1402 24.9562 48.0939C24.9562 39.957 19.6814 35.552 14.1404 35.552C10.9233 35.552 8.94813 36.5029 6.73825 38.2647V36.0016H0V67ZM12.4118 54.7477C9.26432 54.7477 6.64918 52.0946 6.64918 48.0939C6.64918 44.0029 9.26432 41.3509 12.4118 41.3509C15.5593 41.3509 18.2179 44.0029 18.2179 48.0047C18.2179 52.1398 15.5593 54.7477 12.4118 54.7477ZM25.1116 30.7867H31.8498V22.7391C33.8935 24.2177 35.6623 24.9934 39.253 24.9934C44.8821 24.9934 50.0678 20.5873 50.0678 12.5419C50.0678 4.40499 44.793 0 39.253 0C36.0349 0 34.0597 0.950853 31.8498 2.71262V0.449538H25.1116V30.7867ZM37.5234 19.1946C34.3759 19.1946 31.7608 16.5414 31.7608 12.5419C31.7608 8.45085 34.3759 5.79879 37.5234 5.79879C40.6709 5.79879 43.3306 8.45085 43.3306 12.4515C43.3306 16.5866 40.6709 19.1946 37.5234 19.1946ZM64.1876 25.0837C71.5909 25.0837 77.087 19.4645 77.087 12.5419C77.087 5.52886 71.6342 0 64.2768 0C56.8745 0 51.377 5.61924 51.377 12.5419C51.377 19.5549 56.8302 25.0837 64.1876 25.0837ZM64.2768 19.1946C60.5532 19.1946 58.026 16.093 58.026 12.5419C58.026 8.90039 60.3316 5.88807 64.1876 5.88807C67.9111 5.88807 70.4378 8.99077 70.4378 12.5419C70.4378 16.1834 68.1328 19.1946 64.2768 19.1946ZM90.6749 25.0837C95.4169 25.0837 98.0766 23.2404 100.381 20.6776L96.4375 16.6318C94.7968 18.2052 93.2454 19.1946 90.9841 19.1946C87.3054 19.1946 84.9555 16.2274 84.9555 12.5419C84.9555 8.90039 87.3503 5.88807 90.7181 5.88807C93.3789 5.88807 94.7968 6.87747 96.2602 8.27125L100.204 4.22433C97.989 1.70777 95.2401 0 90.7625 0C83.4932 0 78.3063 5.6633 78.3063 12.5419C78.3063 19.5097 83.5375 25.0837 90.6749 25.0837ZM122.092 0.449538H101.17V6.29355H108.218V24.5439H115.043V6.29355H122.092V0.449538ZM134.926 25.0837C142.327 25.0837 147.824 19.4645 147.824 12.5419C147.824 5.52886 142.372 0 135.013 0C127.612 0 122.115 5.61924 122.115 12.5419C122.115 19.5549 127.567 25.0837 134.926 25.0837ZM135.013 19.1946C131.291 19.1946 128.764 16.093 128.764 12.5419C128.764 8.90039 131.07 5.88807 134.926 5.88807C138.649 5.88807 141.175 8.99077 141.175 12.5419C141.175 16.1834 138.87 19.1946 135.013 19.1946ZM38.6762 60.6356C42.9764 60.6356 46.1685 58.9268 48.3838 56.1402L44.5279 52.6785C42.6657 54.4325 41.0262 55.1523 38.7652 55.1523C35.7514 55.1523 33.623 53.5334 32.958 50.432H49.4931C49.5365 49.8017 49.581 49.1726 49.581 48.6338C49.581 41.8004 45.9468 35.552 38.0123 35.552C31.097 35.552 26.2643 41.2164 26.2643 48.0939C26.2643 55.5553 31.5402 60.6356 38.6762 60.6356ZM32.8701 46.1602C33.4013 43.0586 35.2201 41.0368 38.0123 41.0368C40.8491 41.0368 42.6222 43.1038 43.0209 46.1602H32.8701ZM51.4607 60.0956H58.11V45.7559L64.6256 55.5114L71.23 45.6215V60.0956H78.0575V36.0016H71.23L64.7143 46.1162L58.2867 36.0016H51.4607V60.0956ZM93.2396 60.6356C100.643 60.6356 106.14 55.0164 106.14 48.0939C106.14 41.0809 100.686 35.552 93.3288 35.552C85.9255 35.552 80.4294 41.1713 80.4294 48.0939C80.4294 55.1068 85.8822 60.6356 93.2396 60.6356ZM93.3288 54.7477C89.6058 54.7477 87.0786 51.645 87.0786 48.0939C87.0786 44.4524 89.3841 41.4412 93.2396 41.4412C96.9632 41.4412 99.4904 44.5428 99.4904 48.0939C99.4904 51.7354 97.1848 54.7477 93.3288 54.7477ZM130.276 36.0016H123.538V45.2623H115.249V36.0016H108.511V60.0956H115.249V50.8815H123.538V60.0956H130.276V36.0016ZM153 36.0016H132.078V41.8456H139.126V60.0956H145.952V41.8456H153V36.0016Z" fill="#2A2A2A"/>
</svg>
