<svg width="370" height="237" viewBox="0 0 370 237" fill="none" xmlns="http://www.w3.org/2000/svg">
<path d="M4.78703 177.46V141.325L73.7111 32.9204H106.5V81.1003H87.7636L50.6249 139.987V141.325H152.338V177.46H4.78703ZM88.0981 204.227V166.419L89.1019 150.694V32.9204H132.598V204.227H88.0981Z" fill="#803D39"/>
<path d="M184.958 209.138C169.4 209.082 155.961 205.485 144.641 198.347C133.321 191.21 124.594 180.921 118.46 167.482C112.326 154.043 109.287 137.927 109.342 119.135C109.398 100.287 112.465 84.2826 118.544 71.1224C124.678 57.9621 133.377 47.9525 144.641 41.0936C155.961 34.2346 169.4 30.8051 184.958 30.8051C200.516 30.8051 213.955 34.2625 225.275 41.1772C236.595 48.0362 245.323 58.0458 251.457 71.206C257.591 84.3663 260.63 100.343 260.574 119.135C260.574 138.039 257.507 154.21 251.373 167.65C245.239 181.089 236.512 191.377 225.192 198.515C213.927 205.597 200.516 209.138 184.958 209.138ZM184.958 171.33C192.988 171.33 199.568 167.148 204.699 158.783C209.885 150.363 212.45 137.147 212.394 119.135C212.394 107.369 211.223 97.7496 208.881 90.2772C206.539 82.8049 203.304 77.2843 199.178 73.7154C195.051 70.0907 190.312 68.2784 184.958 68.2784C176.928 68.2784 170.376 72.3492 165.301 80.4907C160.227 88.6322 157.634 101.514 157.522 119.135C157.467 131.124 158.61 140.994 160.952 148.746C163.294 156.441 166.528 162.129 170.655 165.809C174.837 169.49 179.605 171.33 184.958 171.33Z" fill="#FF766E"/>
<path d="M219.23 177.46V141.325L288.154 32.9204H320.943V81.1003H302.207L265.068 139.987V141.325H366.781V177.46H219.23ZM302.541 204.227V166.419L303.545 150.694V32.9204H347.041V204.227H302.541Z" fill="#803D39"/>
</svg>
