<svg width="370" height="237" viewBox="0 0 370 237" fill="none" xmlns="http://www.w3.org/2000/svg">
<path d="M78.9599 206.569C65.7996 206.569 54.1171 204.255 43.9123 199.626C33.7633 194.942 25.7612 188.501 19.906 180.304C14.1066 172.107 11.1511 162.683 11.0395 152.032H56.2082C56.3755 157.943 58.6618 162.655 63.0672 166.168C67.5283 169.681 72.8258 171.438 78.9599 171.438C83.6998 171.438 87.8821 170.434 91.5067 168.426C95.1314 166.363 97.9753 163.463 100.039 159.727C102.102 155.991 103.106 151.642 103.05 146.679C103.106 141.66 102.102 137.31 100.039 133.63C97.9753 129.894 95.1314 127.022 91.5067 125.014C87.8821 122.951 83.6998 121.919 78.9599 121.919C74.0526 121.919 69.5079 123.118 65.3256 125.516C61.1991 127.858 58.16 131.12 56.2082 135.303L15.3891 127.273L22.0808 32.9204H137.177V70.0591H60.2232L56.8774 107.867H57.8811C60.5578 102.681 65.1862 98.3871 71.7663 94.9855C78.3464 91.5282 85.9861 89.7995 94.6852 89.7995C104.89 89.7995 113.98 92.1695 121.954 96.9094C129.984 101.649 136.313 108.202 140.941 116.566C145.625 124.875 147.94 134.466 147.884 145.34C147.94 157.274 145.096 167.869 139.352 177.126C133.664 186.327 125.662 193.548 115.346 198.79C105.029 203.976 92.9008 206.569 78.9599 206.569Z" fill="#803D39"/>
<path d="M184.958 209.138C169.4 209.082 155.961 205.485 144.641 198.347C133.321 191.21 124.594 180.921 118.46 167.482C112.326 154.043 109.287 137.927 109.342 119.135C109.398 100.287 112.465 84.2826 118.544 71.1224C124.678 57.9621 133.377 47.9525 144.641 41.0936C155.961 34.2346 169.4 30.8051 184.958 30.8051C200.516 30.8051 213.955 34.2625 225.275 41.1772C236.595 48.0362 245.323 58.0458 251.457 71.206C257.591 84.3663 260.63 100.343 260.574 119.135C260.574 138.039 257.507 154.21 251.373 167.65C245.239 181.089 236.512 191.377 225.192 198.515C213.927 205.597 200.516 209.138 184.958 209.138ZM184.958 171.33C192.988 171.33 199.568 167.148 204.699 158.783C209.885 150.363 212.45 137.147 212.394 119.135C212.394 107.369 211.223 97.7496 208.881 90.2772C206.539 82.8049 203.304 77.2843 199.178 73.7154C195.051 70.0907 190.312 68.2784 184.958 68.2784C176.928 68.2784 170.376 72.3492 165.301 80.4907C160.227 88.6322 157.634 101.514 157.522 119.135C157.467 131.124 158.61 140.994 160.952 148.746C163.294 156.441 166.528 162.129 170.655 165.809C174.837 169.49 179.605 171.33 184.958 171.33Z" fill="#FF766E"/>
<path d="M291.04 206.569C277.545 206.569 265.556 204.255 255.072 199.626C244.645 194.942 236.447 188.501 230.481 180.304C224.514 172.107 221.503 162.683 221.447 152.032H268.289C268.344 155.322 269.348 158.277 271.3 160.898C273.307 163.463 276.04 165.471 279.497 166.921C282.954 168.371 286.914 169.096 291.375 169.096C295.669 169.096 299.46 168.343 302.751 166.837C306.041 165.276 308.606 163.129 310.446 160.396C312.286 157.664 313.178 154.541 313.123 151.028C313.178 147.571 312.119 144.504 309.944 141.827C307.825 139.15 304.842 137.059 300.994 135.554C297.146 134.048 292.713 133.295 287.694 133.295H270.296V101.175H287.694C292.323 101.175 296.393 100.422 299.907 98.9169C303.475 97.4112 306.236 95.3201 308.188 92.6434C310.195 89.9668 311.171 86.8998 311.115 83.4424C311.171 80.0966 310.362 77.1411 308.689 74.576C307.016 72.0108 304.674 70.0033 301.663 68.5535C298.708 67.1036 295.278 66.3787 291.375 66.3787C287.137 66.3787 283.345 67.1315 279.999 68.6371C276.709 70.1428 274.116 72.2339 272.22 74.9106C270.324 77.5872 269.348 80.6542 269.292 84.1116H224.793C224.849 73.628 227.72 64.3712 233.408 56.3412C239.152 48.3112 247.015 42.0099 256.996 37.4373C266.978 32.8647 278.438 30.5783 291.375 30.5783C304.033 30.5783 315.214 32.7252 324.917 37.0191C334.675 41.3129 342.287 47.2238 347.752 54.7519C353.273 62.2243 356.005 70.784 355.949 80.4312C356.061 90.0225 352.771 97.8852 346.079 104.019C339.443 110.153 331.023 113.778 320.818 114.893V116.232C334.647 117.737 345.047 121.975 352.018 128.946C358.988 135.86 362.418 144.56 362.306 155.043C362.362 165.081 359.351 173.975 353.273 181.726C347.25 189.477 338.858 195.556 328.095 199.961C317.389 204.366 305.037 206.569 291.04 206.569Z" fill="#803D39"/>
</svg>
