<svg width="567" height="495" viewBox="0 0 567 495" fill="none" xmlns="http://www.w3.org/2000/svg">
<g opacity="0.08">
<path d="M28.3798 246.73L28.1943 246.823L28.3798 246.916V246.73Z" fill="white"/>
<path d="M21.4233 234.593L21.1451 234.408V234.778L21.4233 234.593Z" fill="white"/>
<path d="M28.4716 222.085L28.0079 222.363L28.4716 222.641V222.085Z" fill="white"/>
<path d="M7.14102 234.5L7.0483 234.593H7.14102V234.5Z" fill="white"/>
<path d="M21.609 210.04L21.1453 209.762V210.318L21.609 210.04Z" fill="white"/>
<path d="M28.5645 197.44L27.9153 197.811L28.5645 198.181V197.44Z" fill="white"/>
<path d="M0.0927206 222.363L0 222.271V222.456L0.0927206 222.363Z" fill="white"/>
<path d="M7.23386 209.948L6.95564 210.041L7.23386 210.226V209.948Z" fill="white"/>
<path d="M21.7018 185.581L21.0526 185.21V185.951L21.7018 185.581Z" fill="white"/>
<path d="M28.5645 172.888L27.8225 173.351L28.5645 173.722V172.888Z" fill="white"/>
<path d="M0.185556 197.81L0.000115164 197.718V197.903L0.185556 197.81Z" fill="white"/>
<path d="M7.23386 185.395L6.95564 185.581L7.23386 185.766V185.395Z" fill="white"/>
<path d="M21.7018 161.12L21.0526 160.75V161.398L21.7018 161.12Z" fill="white"/>
<path d="M28.5645 148.427L27.9153 148.798L28.5645 149.261V148.427Z" fill="white"/>
<path d="M0.0927206 173.351L0 173.258V173.351H0.0927206Z" fill="white"/>
<path d="M7.14102 160.936L6.95558 161.121L7.14102 161.214V160.936Z" fill="white"/>
<path d="M21.5162 136.568L21.1452 136.383V136.846L21.5162 136.568Z" fill="white"/>
<path d="M28.4716 124.06L28.1007 124.338L28.4716 124.524V124.06Z" fill="white"/>
<path d="M7.14102 136.568H7.0483L7.14102 136.66V136.568Z" fill="white"/>
<path d="M182.889 369.308H182.797L182.889 369.401V369.308Z" fill="white"/>
<path d="M197.172 369.308L196.893 369.122V369.493L197.172 369.308Z" fill="white"/>
<path d="M176.12 357.078L175.563 356.8V357.356L176.12 357.078Z" fill="white"/>
<path d="M204.499 356.337L203.293 357.079L204.499 357.82V356.337Z" fill="white"/>
<path d="M218.318 381.538H218.225V381.631L218.318 381.538Z" fill="white"/>
<path d="M183.354 344.014L181.87 344.848L183.354 345.682V344.014Z" fill="white"/>
<path d="M198.285 344.848L196.337 343.736V345.96L198.285 344.848Z" fill="white"/>
<path d="M219.338 357.078L217.669 356.152V358.005L219.338 357.078Z" fill="white"/>
<path d="M225.644 368.752L224.624 369.308L225.644 369.957V368.752Z" fill="white"/>
<path d="M161.652 356.985L161.466 357.078L161.652 357.17V356.985Z" fill="white"/>
<path d="M162.115 331.692L160.631 332.618L162.115 333.452V331.692Z" fill="white"/>
<path d="M177.233 332.618L175.007 331.321V333.823L177.233 332.618Z" fill="white"/>
<path d="M205.148 330.672L201.81 332.618L205.148 334.471V330.672Z" fill="white"/>
<path d="M220.821 332.618L216.926 330.302V334.842L220.821 332.618Z" fill="white"/>
<path d="M226.293 343.087L223.326 344.848L226.293 346.515V343.087Z" fill="white"/>
<path d="M240.669 369.308L238.906 368.289V370.327L240.669 369.308Z" fill="white"/>
<path d="M246.975 380.797L245.677 381.538L246.975 382.372V380.797Z" fill="white"/>
<path d="M239.648 393.861L239.37 393.675V393.953L239.648 393.861Z" fill="white"/>
<path d="M154.789 344.848L154.325 344.57V345.126L154.789 344.848Z" fill="white"/>
<path d="M155.808 320.295L153.861 319.184V321.407L155.808 320.295Z" fill="white"/>
<path d="M184.003 318.257L180.386 320.296L184.003 322.427V318.257Z" fill="white"/>
<path d="M199.954 320.296L195.502 317.794V322.89L199.954 320.296Z" fill="white"/>
<path d="M227.221 317.053L221.563 320.296L227.221 323.631V317.053Z" fill="white"/>
<path d="M241.875 344.848L238.257 342.717V346.887L241.875 344.848Z" fill="white"/>
<path d="M247.531 355.318L244.563 357.078L247.531 358.839V355.318Z" fill="white"/>
<path d="M262.185 381.538L259.959 380.334V382.835L262.185 381.538Z" fill="white"/>
<path d="M162.672 306.213L159.426 308.066L162.672 309.919V306.213Z" fill="white"/>
<path d="M178.623 308.066L174.357 305.657V310.475L178.623 308.066Z" fill="white"/>
<path d="M206.075 304.637L200.139 308.065L206.075 311.493V304.637Z" fill="white"/>
<path d="M222.584 308.066L216.091 304.36V311.865L222.584 308.066Z" fill="white"/>
<path d="M243.729 320.295L237.33 316.682V324.002L243.729 320.295Z" fill="white"/>
<path d="M248.367 329.468L242.988 332.618L248.367 335.675V329.468Z" fill="white"/>
<path d="M263.391 357.078L259.403 354.762V359.395L263.391 357.078Z" fill="white"/>
<path d="M269.048 367.177L265.246 369.308L269.048 371.531V367.177Z" fill="white"/>
<path d="M268.491 392.656L266.451 393.86L268.491 394.972V392.656Z" fill="white"/>
<path d="M261.165 406.091L260.515 405.72V406.461L261.165 406.091Z" fill="white"/>
<path d="M133.457 332.618L133.179 332.433V332.711L133.457 332.618Z" fill="white"/>
<path d="M140.784 319.647L139.579 320.296L140.784 321.037V319.647Z" fill="white"/>
<path d="M141.156 294.353L138.652 295.835L141.156 297.318V294.353Z" fill="white"/>
<path d="M156.829 295.836L153.397 293.89V297.782L156.829 295.836Z" fill="white"/>
<path d="M184.744 292.592L179.087 295.835L184.744 299.078V292.592Z" fill="white"/>
<path d="M201.346 295.836L194.854 292.037V299.542L201.346 295.836Z" fill="white"/>
<path d="M227.963 291.295L220.079 295.835L227.963 300.375V291.295Z" fill="white"/>
<path d="M245.027 295.836L236.68 291.018V300.654L245.027 295.836Z" fill="white"/>
<path d="M249.109 303.618L241.411 308.066L249.109 312.606V303.618Z" fill="white"/>
<path d="M264.874 332.618L258.568 328.912V336.231L264.874 332.618Z" fill="white"/>
<path d="M269.697 341.513L264.04 344.848L269.697 348.091V341.513Z" fill="white"/>
<path d="M285.463 369.308L280.177 366.343V372.366L285.463 369.308Z" fill="white"/>
<path d="M290.75 378.574L285.65 381.539L290.75 384.503V378.574Z" fill="white"/>
<path d="M284.258 393.86L280.827 391.822V395.806L284.258 393.86Z" fill="white"/>
<path d="M267.935 418.043L267.472 418.321L267.935 418.599V418.043Z" fill="white"/>
<path d="M134.292 308.066L132.808 307.232V308.9L134.292 308.066Z" fill="white"/>
<path d="M135.034 283.606L132.344 282.031V285.088L135.034 283.606Z" fill="white"/>
<path d="M163.228 280.826L158.405 283.606L163.228 286.293V280.826Z" fill="white"/>
<path d="M179.644 283.606L173.801 280.178V286.941L179.644 283.606Z" fill="white"/>
<path d="M206.632 279.158L198.934 283.605L206.632 287.96V279.158Z" fill="white"/>
<path d="M223.79 283.606L215.443 278.788V288.331L223.79 283.606Z" fill="white"/>
<path d="M249.572 278.325L240.483 283.606L249.572 288.887V278.325Z" fill="white"/>
<path d="M266.359 308.066L257.919 303.155V312.976L266.359 308.066Z" fill="white"/>
<path d="M270.439 315.756L262.463 320.296L270.439 324.928V315.756Z" fill="white"/>
<path d="M286.669 344.848L279.621 340.772V348.925L286.669 344.848Z" fill="white"/>
<path d="M291.306 353.095L284.443 357.079L291.306 361.063V353.095Z" fill="white"/>
<path d="M307.815 381.538L300.859 377.554V385.615L307.815 381.538Z" fill="white"/>
<path d="M290.1 404.238L286.854 406.091L290.1 407.944V404.238Z" fill="white"/>
<path d="M283.052 418.32L281.383 417.394V419.247L283.052 418.32Z" fill="white"/>
<path d="M119.361 307.695L118.619 308.065L119.361 308.529V307.695Z" fill="white"/>
<path d="M141.619 269.152L137.909 271.283L141.619 273.507V269.152Z" fill="white"/>
<path d="M157.663 271.283L152.933 268.596V274.063L157.663 271.283Z" fill="white"/>
<path d="M185.116 267.299L178.16 271.283L185.116 275.36V267.299Z" fill="white"/>
<path d="M202.273 271.283L194.39 266.836V275.823L202.273 271.283Z" fill="white"/>
<path d="M228.334 266.095L219.338 271.283L228.334 276.564V266.095Z" fill="white"/>
<path d="M245.677 271.283L236.403 265.91V276.75L245.677 271.283Z" fill="white"/>
<path d="M267.101 283.606L257.548 278.047V289.165L267.101 283.606Z" fill="white"/>
<path d="M270.903 290.369L261.536 295.836L270.903 301.302V290.369Z" fill="white"/>
<path d="M287.968 320.296L278.972 315.107V325.577L287.968 320.296Z" fill="white"/>
<path d="M291.955 327.522L283.145 332.618L291.955 337.621V327.522Z" fill="white"/>
<path d="M308.927 357.078L300.302 352.075V362.081L308.927 357.078Z" fill="white"/>
<path d="M313.194 364.212L304.291 369.308L313.194 374.497V364.212Z" fill="white"/>
<path d="M312.637 389.784L305.589 393.861L312.637 397.937V389.784Z" fill="white"/>
<path d="M306.516 406.091L301.508 403.218V408.963L306.516 406.091Z" fill="white"/>
<path d="M289.544 429.716L288.061 430.55L289.544 431.384V429.716Z" fill="white"/>
<path d="M282.125 442.873L281.846 442.688V442.966L282.125 442.873Z" fill="white"/>
<path d="M112.683 295.836L111.755 295.28V296.392L112.683 295.836Z" fill="white"/>
<path d="M119.731 282.494L117.876 283.605L119.731 284.625V282.494Z" fill="white"/>
<path d="M120.103 257.478L117.228 259.053L120.103 260.721V257.478Z" fill="white"/>
<path d="M135.777 259.053L132.067 256.922V261.277L135.777 259.053Z" fill="white"/>
<path d="M163.507 255.718L157.756 259.054L163.507 262.482V255.718Z" fill="white"/>
<path d="M180.386 259.053L173.43 255.069V263.037L180.386 259.053Z" fill="white"/>
<path d="M206.911 254.235L198.471 259.053L206.911 263.963V254.235Z" fill="white"/>
<path d="M224.253 259.053L215.257 253.865V264.335L224.253 259.053Z" fill="white"/>
<path d="M249.757 253.586L240.112 259.053L249.757 264.612V253.586Z" fill="white"/>
<path d="M267.194 259.053L257.455 253.494V264.705L267.194 259.053Z" fill="white"/>
<path d="M271.088 265.631L261.164 271.283L271.088 277.027V265.631Z" fill="white"/>
<path d="M288.617 295.836L278.601 290.092V301.58L288.617 295.836Z" fill="white"/>
<path d="M292.42 302.321L282.311 308.065L292.42 313.902V302.321Z" fill="white"/>
<path d="M310.04 332.618L299.746 326.596V338.548L310.04 332.618Z" fill="white"/>
<path d="M313.75 338.733L303.27 344.848L313.75 350.871V338.733Z" fill="white"/>
<path d="M331.557 369.308L320.891 363.1V375.516L331.557 369.308Z" fill="white"/>
<path d="M335.174 375.33L324.23 381.538L335.174 387.838V375.33Z" fill="white"/>
<path d="M330.444 393.86L321.447 388.672V398.956L330.444 393.86Z" fill="white"/>
<path d="M311.802 415.634L307.165 418.321L311.802 421.008V415.634Z" fill="white"/>
<path d="M305.033 430.551L302.25 428.976V432.219L305.033 430.551Z" fill="white"/>
<path d="M289.081 455.011L288.896 455.104L289.081 455.196V455.011Z" fill="white"/>
<path d="M98.0292 295.65L97.6582 295.835L98.0292 296.021V295.65Z" fill="white"/>
<path d="M113.333 271.283L111.385 270.264V272.395L113.333 271.283Z" fill="white"/>
<path d="M113.982 246.823L111.107 245.155V248.491L113.982 246.823Z" fill="white"/>
<path d="M141.989 244.043L137.167 246.823L141.989 249.602V244.043Z" fill="white"/>
<path d="M158.313 246.823L152.656 243.58V250.158L158.313 246.823Z" fill="white"/>
<path d="M185.394 242.376L177.697 246.823L185.394 251.271V242.376Z" fill="white"/>
<path d="M202.644 246.823L194.204 242.005V251.734L202.644 246.823Z" fill="white"/>
<path d="M228.427 241.449L219.152 246.823L228.427 252.197V241.449Z" fill="white"/>
<path d="M245.769 246.823L236.309 241.357V252.29L245.769 246.823Z" fill="white"/>
<path d="M270.996 241.264L261.351 246.823L270.996 252.382V241.264Z" fill="white"/>
<path d="M288.71 271.283L278.601 265.446V277.213L288.71 271.283Z" fill="white"/>
<path d="M292.512 277.584L282.125 283.606L292.512 289.536V277.584Z" fill="white"/>
<path d="M310.505 308.066L299.561 301.765V314.366L310.505 308.066Z" fill="white"/>
<path d="M314.029 313.718L302.621 320.296L314.029 326.874V313.718Z" fill="white"/>
<path d="M332.484 344.849L320.428 337.9V351.797L332.484 344.849Z" fill="white"/>
<path d="M335.545 350.036L323.303 357.078L335.545 364.119V350.036Z" fill="white"/>
<path d="M354.093 381.538L341.48 374.312V388.858L354.093 381.538Z" fill="white"/>
<path d="M334.432 401.088L325.714 406.091L334.432 411.094V401.088Z" fill="white"/>
<path d="M328.682 418.321L322.283 414.615V422.027L328.682 418.321Z" fill="white"/>
<path d="M311.061 441.391L308.557 442.873L311.061 444.263V441.391Z" fill="white"/>
<path d="M303.92 455.103L302.807 454.455V455.752L303.92 455.103Z" fill="white"/>
<path d="M91.1666 283.606L90.6101 283.235V283.884L91.1666 283.606Z" fill="white"/>
<path d="M98.3077 270.634L97.0094 271.283L98.3077 272.024V270.634Z" fill="white"/>
<path d="M120.38 232.37L116.578 234.593L120.38 236.817V232.37Z" fill="white"/>
<path d="M136.425 234.593L131.696 231.814V237.373L136.425 234.593Z" fill="white"/>
<path d="M163.784 230.795L157.199 234.594L163.784 238.392V230.795Z" fill="white"/>
<path d="M180.757 234.594L173.245 230.239V238.948L180.757 234.594Z" fill="white"/>
<path d="M206.911 229.59L198.378 234.593L206.911 239.503V229.59Z" fill="white"/>
<path d="M224.253 234.593L215.257 229.405V239.782L224.253 234.593Z" fill="white"/>
<path d="M249.572 229.405L240.576 234.593L249.572 239.782V229.405Z" fill="white"/>
<path d="M266.636 234.593L257.733 229.405V239.782L266.636 234.593Z" fill="white"/>
<path d="M288.338 246.823L278.786 241.357V252.29L288.338 246.823Z" fill="white"/>
<path d="M292.327 253.309L282.403 259.053L292.327 264.798V253.309Z" fill="white"/>
<path d="M310.412 283.605L299.561 277.305V289.813L310.412 283.605Z" fill="white"/>
<path d="M314.029 289.35L302.714 295.835L314.029 302.321V289.35Z" fill="white"/>
<path d="M332.856 320.295L320.242 313.068V327.615L332.856 320.295Z" fill="white"/>
<path d="M335.916 325.021L322.747 332.618L335.916 340.123V325.021Z" fill="white"/>
<path d="M354.836 357.078L341.11 349.202V364.953L354.836 357.078Z" fill="white"/>
<path d="M357.433 361.155L343.336 369.308L357.433 377.461V361.155Z" fill="white"/>
<path d="M356.969 386.541L344.355 393.861L356.969 401.088V386.541Z" fill="white"/>
<path d="M352.61 406.091L342.223 400.068V412.113L352.61 406.091Z" fill="white"/>
<path d="M333.504 427.215L327.569 430.551L333.504 433.979V427.215Z" fill="white"/>
<path d="M327.013 442.873L323.118 440.65V445.004L327.013 442.873Z" fill="white"/>
<path d="M310.597 466.777L309.577 467.333L310.597 467.889V466.777Z" fill="white"/>
<path d="M76.6986 283.513L76.5131 283.605L76.6986 283.698V283.513Z" fill="white"/>
<path d="M91.7227 259.054L90.3315 258.22V259.887L91.7227 259.054Z" fill="white"/>
<path d="M98.5863 245.619L96.4531 246.823L98.5863 248.12V245.619Z" fill="white"/>
<path d="M98.8638 220.603L95.896 222.364L98.8638 224.031V220.603Z" fill="white"/>
<path d="M114.538 222.363L110.828 220.14V224.494L114.538 222.363Z" fill="white"/>
<path d="M142.175 219.213L136.703 222.363L142.175 225.513V219.213Z" fill="white"/>
<path d="M158.684 222.364L152.47 218.75V225.884L158.684 222.364Z" fill="white"/>
<path d="M185.394 217.916L177.789 222.363L185.394 226.718V217.916Z" fill="white"/>
<path d="M202.366 222.363L194.297 217.731V226.996L202.366 222.363Z" fill="white"/>
<path d="M228.055 217.545L219.801 222.363L228.055 227.088V217.545Z" fill="white"/>
<path d="M244.934 222.363L236.773 217.545V227.088L244.934 222.363Z" fill="white"/>
<path d="M270.439 217.731L262.463 222.363L270.439 226.903V217.731Z" fill="white"/>
<path d="M287.041 222.363L279.436 217.916V226.718L287.041 222.363Z" fill="white"/>
<path d="M291.864 229.59L283.331 234.593L291.864 239.503V229.59Z" fill="white"/>
<path d="M309.948 259.053L299.839 253.216V264.89L309.948 259.053Z" fill="white"/>
<path d="M313.843 265.168L303.178 271.283L313.843 277.491V265.168Z" fill="white"/>
<path d="M332.392 295.835L320.428 288.886V302.691L332.392 295.835Z" fill="white"/>
<path d="M335.731 300.654L322.932 308.066L335.731 315.478V300.654Z" fill="white"/>
<path d="M355.206 332.618L340.924 324.372V340.864L355.206 332.618Z" fill="white"/>
<path d="M357.71 336.232L342.871 344.848L357.71 353.372V336.232Z" fill="white"/>
<path d="M377.094 369.308L361.792 360.506V378.11L377.094 369.308Z" fill="white"/>
<path d="M379.135 372.644L363.739 381.538L379.135 390.433V372.644Z" fill="white"/>
<path d="M376.352 393.86L362.163 385.707V402.013L376.352 393.86Z" fill="white"/>
<path d="M356.041 412.577L346.118 418.321L356.041 424.065V412.577Z" fill="white"/>
<path d="M350.662 430.55L343.15 426.196V434.905L350.662 430.55Z" fill="white"/>
<path d="M332.67 453.158L329.238 455.104L332.67 457.049V453.158Z" fill="white"/>
<path d="M325.714 467.333L323.767 466.221V468.445L325.714 467.333Z" fill="white"/>
<path d="M69.836 271.283L69.465 271.098V271.561L69.836 271.283Z" fill="white"/>
<path d="M76.9761 258.59L76.0487 259.053L76.9761 259.609V258.59Z" fill="white"/>
<path d="M92.3726 234.593L90.054 233.203V235.89L92.3726 234.593Z" fill="white"/>
<path d="M92.743 210.04L89.8679 208.373V211.801L92.743 210.04Z" fill="white"/>
<path d="M120.566 207.632L116.207 210.041L120.566 212.542V207.632Z" fill="white"/>
<path d="M136.61 210.04L131.602 207.168V213.005L136.61 210.04Z" fill="white"/>
<path d="M163.691 206.427L157.385 210.041L163.691 213.747V206.427Z" fill="white"/>
<path d="M180.293 210.041L173.522 206.149V214.025L180.293 210.041Z" fill="white"/>
<path d="M206.446 205.964L199.305 210.04L206.446 214.21V205.964Z" fill="white"/>
<path d="M223.141 210.041L215.814 205.872V214.303L223.141 210.041Z" fill="white"/>
<path d="M248.923 206.056L241.874 210.04L248.923 214.117V206.056Z" fill="white"/>
<path d="M265.246 210.041L258.383 206.149V214.025L265.246 210.041Z" fill="white"/>
<path d="M291.121 206.427L284.814 210.041L291.121 213.747V206.427Z" fill="white"/>
<path d="M308.834 234.593L300.395 229.775V239.411L308.834 234.593Z" fill="white"/>
<path d="M313.38 241.357L304.013 246.823L313.38 252.29V241.357Z" fill="white"/>
<path d="M331.65 271.283L320.799 265.075V277.583L331.65 271.283Z" fill="white"/>
<path d="M335.359 276.842L323.766 283.605L335.359 290.276V276.842Z" fill="white"/>
<path d="M354.65 308.066L341.203 300.283V315.849L354.65 308.066Z" fill="white"/>
<path d="M357.525 311.957L343.149 320.296L357.525 328.634V311.957Z" fill="white"/>
<path d="M377.465 344.848L361.605 335.676V353.928L377.465 344.848Z" fill="white"/>
<path d="M379.319 347.905L363.368 357.078L379.319 366.25V347.905Z" fill="white"/>
<path d="M398.889 381.538L382.752 372.273V390.895L398.889 381.538Z" fill="white"/>
<path d="M378.485 398.215L364.944 406.09L378.485 413.873V398.215Z" fill="white"/>
<path d="M374.59 418.32L363.09 411.65V424.991L374.59 418.32Z" fill="white"/>
<path d="M355.021 438.889L348.25 442.873L355.021 446.765V438.889Z" fill="white"/>
<path d="M348.807 455.103L344.077 452.324V457.79L348.807 455.103Z" fill="white"/>
<path d="M332.021 478.729L330.444 479.563L332.021 480.49V478.729Z" fill="white"/>
<path d="M324.694 491.793L324.323 491.608V492.071L324.694 491.793Z" fill="white"/>
<path d="M55.4608 271.191L55.2753 271.283L55.4608 271.468V271.191Z" fill="white"/>
<path d="M70.2992 246.823L69.1863 246.175V247.472L70.2992 246.823Z" fill="white"/>
<path d="M77.2547 233.574L75.4925 234.593L77.2547 235.52V233.574Z" fill="white"/>
<path d="M98.9567 195.864L95.7107 197.81L98.9567 199.756V195.864Z" fill="white"/>
<path d="M114.631 197.811L110.735 195.587V200.034L114.631 197.811Z" fill="white"/>
<path d="M142.083 194.938L136.982 197.811L142.083 200.775V194.938Z" fill="white"/>
<path d="M158.219 197.811L152.655 194.661V200.961L158.219 197.811Z" fill="white"/>
<path d="M184.93 194.29L178.716 197.811L184.93 201.424V194.29Z" fill="white"/>
<path d="M201.16 197.811L194.946 194.197V201.424L201.16 197.811Z" fill="white"/>
<path d="M227.407 194.29L221.193 197.811L227.407 201.424V194.29Z" fill="white"/>
<path d="M243.451 197.81L237.515 194.382V201.239L243.451 197.81Z" fill="white"/>
<path d="M269.605 194.661L264.04 197.811L269.605 201.054V194.661Z" fill="white"/>
<path d="M285.463 197.811L280.177 194.846V200.868L285.463 197.811Z" fill="white"/>
<path d="M307.258 210.04L301.137 206.52V213.654L307.258 210.04Z" fill="white"/>
<path d="M312.73 218.101L305.403 222.363L312.73 226.532V218.101Z" fill="white"/>
<path d="M330.722 246.823L321.262 241.449V252.289L330.722 246.823Z" fill="white"/>
<path d="M334.896 253.124L324.694 259.053L334.896 264.983V253.124Z" fill="white"/>
<path d="M353.63 283.606L341.666 276.657V290.462L353.63 283.606Z" fill="white"/>
<path d="M357.061 288.331L344.17 295.836L357.061 303.248V288.331Z" fill="white"/>
<path d="M376.816 320.295L361.884 311.679V328.912L376.816 320.295Z" fill="white"/>
<path d="M379.228 323.446L363.461 332.618L379.228 341.698V323.446Z" fill="white"/>
<path d="M399.075 357.078L382.659 347.628V366.529L399.075 357.078Z" fill="white"/>
<path d="M400.744 359.765L384.143 369.308L400.744 378.851V359.765Z" fill="white"/>
<path d="M400.465 384.781L384.792 393.861L400.465 402.848V384.781Z" fill="white"/>
<path d="M397.683 406.091L383.401 397.845V414.337L397.683 406.091Z" fill="white"/>
<path d="M377.465 424.529L366.985 430.551L377.465 436.573V424.529Z" fill="white"/>
<path d="M372.364 442.873L364.203 438.055V447.599L372.364 442.873Z" fill="white"/>
<path d="M354.186 464.832L349.827 467.333L354.186 469.835V464.832Z" fill="white"/>
<path d="M347.324 479.563L344.819 478.081V481.046L347.324 479.563Z" fill="white"/>
<path d="M48.5972 259.053L48.2263 258.867V259.238L48.5972 259.053Z" fill="white"/>
<path d="M55.6455 246.452L54.9035 246.823L55.6455 247.194V246.452Z" fill="white"/>
<path d="M70.7634 222.363L69.0013 221.344V223.289L70.7634 222.363Z" fill="white"/>
<path d="M77.4404 208.743L75.1218 210.04L77.4404 211.43V208.743Z" fill="white"/>
<path d="M77.4404 184.191L75.029 185.58L77.4404 186.97V184.191Z" fill="white"/>
<path d="M92.743 185.581L89.8679 183.913V187.249L92.743 185.581Z" fill="white"/>
<path d="M120.38 183.357L116.578 185.581L120.38 187.804V183.357Z" fill="white"/>
<path d="M136.147 185.581L131.881 183.079V188.083L136.147 185.581Z" fill="white"/>
<path d="M163.228 182.709L158.313 185.581L163.228 188.453V182.709Z" fill="white"/>
<path d="M179.18 185.581L174.079 182.616V188.546L179.18 185.581Z" fill="white"/>
<path d="M205.797 182.616L200.604 185.581L205.797 188.546V182.616Z" fill="white"/>
<path d="M221.656 185.581L216.555 182.616V188.546L221.656 185.581Z" fill="white"/>
<path d="M248.088 182.801L243.358 185.581L248.088 188.36V182.801Z" fill="white"/>
<path d="M263.761 185.58L259.217 182.986V188.175L263.761 185.58Z" fill="white"/>
<path d="M290.379 183.172L286.298 185.581L290.379 187.99V183.172Z" fill="white"/>
<path d="M305.96 185.581L301.787 183.172V187.99L305.96 185.581Z" fill="white"/>
<path d="M311.988 194.846L306.887 197.811L311.988 200.776V194.846Z" fill="white"/>
<path d="M329.239 222.363L322.005 218.194V226.44L329.239 222.363Z" fill="white"/>
<path d="M334.246 229.868L325.992 234.593L334.246 239.318V229.868Z" fill="white"/>
<path d="M352.517 259.053L342.222 253.124V265.076L352.517 259.053Z" fill="white"/>
<path d="M356.412 264.89L345.283 271.283L356.412 277.769V264.89Z" fill="white"/>
<path d="M375.61 295.836L362.533 288.239V303.433L375.61 295.836Z" fill="white"/>
<path d="M378.671 299.912L364.574 308.066L378.671 316.219V299.912Z" fill="white"/>
<path d="M398.796 332.618L382.844 323.353V341.791L398.796 332.618Z" fill="white"/>
<path d="M400.744 335.305L384.236 344.848L400.744 354.298V335.305Z" fill="white"/>
<path d="M420.405 369.308L403.897 359.765V378.851L420.405 369.308Z" fill="white"/>
<path d="M421.889 372.181L405.659 381.539L421.889 390.896V372.181Z" fill="white"/>
<path d="M419.848 393.861L404.175 384.781V402.94L419.848 393.861Z" fill="white"/>
<path d="M399.631 410.723L386.461 418.321L399.631 425.918V410.723Z" fill="white"/>
<path d="M395.642 430.551L384.42 424.158V437.036L395.642 430.551Z" fill="white"/>
<path d="M376.352 450.934L369.211 455.103L376.352 459.18V450.934Z" fill="white"/>
<path d="M370.509 467.333L365.13 464.183V470.483L370.509 467.333Z" fill="white"/>
<path d="M353.352 490.774L351.497 491.793L353.352 492.905V490.774Z" fill="white"/>
<path d="M346.025 504.116L345.468 503.745V504.394L346.025 504.116Z" fill="white"/>
<path d="M34.2221 258.961L34.0366 259.053L34.2221 259.146V258.961Z" fill="white"/>
<path d="M48.8758 234.593L48.0411 234.038V235.057L48.8758 234.593Z" fill="white"/>
<path d="M55.8312 221.622L54.5329 222.363L55.8312 223.104V221.622Z" fill="white"/>
<path d="M70.9481 197.811L68.815 196.606V199.015L70.9481 197.811Z" fill="white"/>
<path d="M71.041 173.351L68.8151 172.053V174.555L71.041 173.351Z" fill="white"/>
<path d="M98.8638 171.683L95.896 173.35L98.8638 175.018V171.683Z" fill="white"/>
<path d="M114.166 173.35L110.92 171.497V175.203L114.166 173.35Z" fill="white"/>
<path d="M141.619 171.035L137.724 173.351L141.619 175.574V171.035Z" fill="white"/>
<path d="M157.292 173.35L153.118 170.941V175.667L157.292 173.35Z" fill="white"/>
<path d="M184.281 170.849L179.922 173.35L184.281 175.852V170.849Z" fill="white"/>
<path d="M199.861 173.35L195.595 170.849V175.759L199.861 173.35Z" fill="white"/>
<path d="M226.665 170.941L222.584 173.35L226.665 175.667V170.941Z" fill="white"/>
<path d="M242.06 173.351L238.165 171.035V175.574L242.06 173.351Z" fill="white"/>
<path d="M268.956 171.22L265.431 173.351L268.956 175.389V171.22Z" fill="white"/>
<path d="M284.165 173.351L280.827 171.405V175.296L284.165 173.351Z" fill="white"/>
<path d="M311.432 171.312L308.001 173.351L311.432 175.296V171.312Z" fill="white"/>
<path d="M327.847 197.811L322.746 194.846V200.776L327.847 197.811Z" fill="white"/>
<path d="M333.504 206.52L327.476 210.04L333.504 213.561V206.52Z" fill="white"/>
<path d="M351.126 234.593L342.965 229.868V239.318L351.126 234.593Z" fill="white"/>
<path d="M355.855 241.449L346.581 246.823L355.855 252.197V241.449Z" fill="white"/>
<path d="M374.219 271.283L363.275 264.983V277.676L374.219 271.283Z" fill="white"/>
<path d="M377.929 276.75L366.15 283.606L377.929 290.369V276.75Z" fill="white"/>
<path d="M397.497 308.065L383.493 300.005V316.126L397.497 308.065Z" fill="white"/>
<path d="M400.187 311.679L385.162 320.295L400.187 329.005V311.679Z" fill="white"/>
<path d="M420.312 344.849L403.897 335.398V354.299L420.312 344.849Z" fill="white"/>
<path d="M421.889 347.628L405.566 357.078L421.889 366.529V347.628Z" fill="white"/>
<path d="M441.18 381.538L425.321 372.459V390.711L441.18 381.538Z" fill="white"/>
<path d="M421.333 397.752L406.772 406.09L421.333 414.429V397.752Z" fill="white"/>
<path d="M418.179 418.321L405.009 410.723V425.918L418.179 418.321Z" fill="white"/>
<path d="M398.332 437.407L388.965 442.873L398.332 448.247V437.407Z" fill="white"/>
<path d="M393.324 455.103L385.534 450.656V459.551L393.324 455.103Z" fill="white"/>
<path d="M375.425 477.061L371.066 479.563L375.425 482.065V477.061Z" fill="white"/>
<path d="M368.654 491.793L366.057 490.311V493.368L368.654 491.793Z" fill="white"/>
<path d="M352.795 516.253L352.703 516.346L352.795 516.439V516.253Z" fill="white"/>
<path d="M27.3585 246.824L26.9875 246.638V247.009L27.3585 246.824Z" fill="white"/>
<path d="M34.4077 234.223L33.7585 234.593L34.4077 234.871V234.223Z" fill="white"/>
<path d="M49.2461 210.041L47.855 209.299V210.875L49.2461 210.041Z" fill="white"/>
<path d="M55.9241 196.884L54.3474 197.81L55.9241 198.737V196.884Z" fill="white"/>
<path d="M77.3475 159.824L75.1217 161.121L77.3475 162.325V159.824Z" fill="white"/>
<path d="M92.4644 161.12L89.9604 159.638V162.51L92.4644 161.12Z" fill="white"/>
<path d="M120.103 159.36L117.135 161.12L120.103 162.788V159.36Z" fill="white"/>
<path d="M135.405 161.121L132.252 159.268V162.881L135.405 161.121Z" fill="white"/>
<path d="M162.764 159.083L159.332 161.121L162.764 163.067V159.083Z" fill="white"/>
<path d="M178.066 161.121L174.635 159.083V163.067L178.066 161.121Z" fill="white"/>
<path d="M205.241 159.083L201.81 161.121L205.241 163.067V159.083Z" fill="white"/>
<path d="M220.451 161.121L217.112 159.175V162.974L220.451 161.121Z" fill="white"/>
<path d="M247.531 159.268L244.471 161.121L247.531 162.881V159.268Z" fill="white"/>
<path d="M262.649 161.121L259.774 159.453V162.696L262.649 161.121Z" fill="white"/>
<path d="M289.915 159.546L287.225 161.121L289.915 162.604V159.546Z" fill="white"/>
<path d="M304.94 161.121L302.25 159.546V162.604L304.94 161.121Z" fill="white"/>
<path d="M326.828 173.351L323.211 171.22V175.389L326.828 173.351Z" fill="white"/>
<path d="M332.948 183.079L328.682 185.581L332.948 188.083V183.079Z" fill="white"/>
<path d="M349.735 210.04L343.613 206.612V213.561L349.735 210.04Z" fill="white"/>
<path d="M355.021 218.287L348.065 222.363L355.021 226.347V218.287Z" fill="white"/>
<path d="M372.921 246.823L363.925 241.634V252.011L372.921 246.823Z" fill="white"/>
<path d="M377.28 253.401L367.449 259.053L377.28 264.705V253.401Z" fill="white"/>
<path d="M395.735 283.606L384.328 277.028V290.184L395.735 283.606Z" fill="white"/>
<path d="M399.445 288.609L386.832 295.836L399.445 303.062V288.609Z" fill="white"/>
<path d="M419.199 320.296L404.453 311.865V328.82L419.199 320.296Z" fill="white"/>
<path d="M421.61 323.631L406.122 332.618L421.61 341.513V323.631Z" fill="white"/>
<path d="M441.18 357.078L425.321 347.905V366.25L441.18 357.078Z" fill="white"/>
<path d="M442.942 360.228L427.176 369.308L442.942 378.48V360.228Z" fill="white"/>
<path d="M442.663 385.337L427.824 393.861L442.663 402.385V385.337Z" fill="white"/>
<path d="M439.974 406.091L425.97 397.937V414.151L439.974 406.091Z" fill="white"/>
<path d="M420.22 424.065L408.905 430.551L420.22 437.129V424.065Z" fill="white"/>
<path d="M415.768 442.873L406.215 437.314V448.34L415.768 442.873Z" fill="white"/>
<path d="M397.312 463.627L391.005 467.333L397.312 470.946V463.627Z" fill="white"/>
<path d="M391.284 479.563L386.554 476.876V482.25L391.284 479.563Z" fill="white"/>
<path d="M374.497 503.097L372.921 504.116L374.497 505.042V503.097Z" fill="white"/>
<path d="M367.263 516.346L366.707 515.975V516.624L367.263 516.346Z" fill="white"/>
<path d="M27.5442 222.363L26.895 221.9V222.733L27.5442 222.363Z" fill="white"/>
<path d="M34.5006 209.485L33.4805 210.041L34.5006 210.597V209.485Z" fill="white"/>
<path d="M49.339 185.581L47.8551 184.654V186.415L49.339 185.581Z" fill="white"/>
<path d="M56.0169 172.332L54.2548 173.351L56.0169 174.37V172.332Z" fill="white"/>
<path d="M55.9241 147.965L54.3474 148.798L55.9241 149.725V147.965Z" fill="white"/>
<path d="M70.7634 148.798L68.9086 147.779V149.91L70.7634 148.798Z" fill="white"/>
<path d="M98.5863 147.593L96.4531 148.798L98.5863 150.095V147.593Z" fill="white"/>
<path d="M113.517 148.798L111.292 147.501V150.096L113.517 148.798Z" fill="white"/>
<path d="M141.156 147.409L138.744 148.799L141.156 150.281V147.409Z" fill="white"/>
<path d="M156.273 148.798L153.676 147.316V150.28L156.273 148.798Z" fill="white"/>
<path d="M183.724 147.316L181.127 148.798L183.724 150.28V147.316Z" fill="white"/>
<path d="M198.748 148.798L196.151 147.316V150.28L198.748 148.798Z" fill="white"/>
<path d="M226.108 147.409L223.696 148.799L226.108 150.281V147.409Z" fill="white"/>
<path d="M241.04 148.799L238.629 147.409V150.188L241.04 148.799Z" fill="white"/>
<path d="M268.491 147.593L266.358 148.798L268.491 150.095V147.593Z" fill="white"/>
<path d="M283.331 148.798L281.29 147.686V150.003L283.331 148.798Z" fill="white"/>
<path d="M311.061 147.501L308.742 148.798L311.061 150.096V147.501Z" fill="white"/>
<path d="M326.085 148.799L323.581 147.409V150.281L326.085 148.799Z" fill="white"/>
<path d="M332.577 159.268L329.424 161.121L332.577 162.881V159.268Z" fill="white"/>
<path d="M348.622 185.58L344.171 182.986V188.175L348.622 185.58Z" fill="white"/>
<path d="M354.465 194.846L349.271 197.811L354.465 200.776V194.846Z" fill="white"/>
<path d="M371.344 222.363L364.666 218.472V226.162L371.344 222.363Z" fill="white"/>
<path d="M376.445 230.239L368.933 234.594L376.445 238.948V230.239Z" fill="white"/>
<path d="M394.345 259.053L385.07 253.679V264.427L394.345 259.053Z" fill="white"/>
<path d="M398.61 265.539L388.501 271.283L398.61 277.12V265.539Z" fill="white"/>
<path d="M417.437 295.835L405.381 288.886V302.784L417.437 295.835Z" fill="white"/>
<path d="M420.869 300.468L407.606 308.066L420.869 315.663V300.468Z" fill="white"/>
<path d="M440.623 332.619L425.598 323.909V341.235L440.623 332.619Z" fill="white"/>
<path d="M442.849 335.954L427.454 344.848L442.849 353.743V335.954Z" fill="white"/>
<path d="M461.954 369.308L446.837 360.599V378.017L461.954 369.308Z" fill="white"/>
<path d="M463.809 373.2L449.249 381.538L463.809 389.969V373.2Z" fill="white"/>
<path d="M461.213 393.86L447.208 385.707V401.921L461.213 393.86Z" fill="white"/>
<path d="M441.736 411.279L429.587 418.321L441.736 425.362V411.279Z" fill="white"/>
<path d="M437.84 430.55L426.989 424.343V436.851L437.84 430.55Z" fill="white"/>
<path d="M419.014 450.563L411.316 455.103L419.014 459.55V450.563Z" fill="white"/>
<path d="M413.542 467.333L407.328 463.72V470.947L413.542 467.333Z" fill="white"/>
<path d="M396.292 490.032L393.139 491.793L396.292 493.646V490.032Z" fill="white"/>
<path d="M389.336 504.116L387.574 503.004V505.135L389.336 504.116Z" fill="white"/>
<path d="M27.7299 197.811L26.8024 197.255V198.367L27.7299 197.811Z" fill="white"/>
<path d="M34.5925 184.932L33.3868 185.58L34.5925 186.229V184.932Z" fill="white"/>
<path d="M49.339 161.12L47.8551 160.194V161.954L49.339 161.12Z" fill="white"/>
<path d="M49.1533 136.569L47.9476 135.92V137.31L49.1533 136.569Z" fill="white"/>
<path d="M77.1618 135.734L75.5853 136.568L77.1618 137.495V135.734Z" fill="white"/>
<path d="M91.9083 136.568L90.239 135.642V137.495L91.9083 136.568Z" fill="white"/>
<path d="M119.638 135.642L118.062 136.568L119.638 137.495V135.642Z" fill="white"/>
<path d="M134.385 136.568L132.715 135.642V137.587L134.385 136.568Z" fill="white"/>
<path d="M162.208 135.549L160.446 136.568L162.208 137.587V135.549Z" fill="white"/>
<path d="M176.861 136.568L175.192 135.549V137.587L176.861 136.568Z" fill="white"/>
<path d="M204.684 135.549L202.922 136.568L204.684 137.587V135.549Z" fill="white"/>
<path d="M219.338 136.568L217.669 135.642V137.495L219.338 136.568Z" fill="white"/>
<path d="M247.068 135.642L245.491 136.568L247.068 137.495V135.642Z" fill="white"/>
<path d="M261.722 136.568L260.238 135.734V137.402L261.722 136.568Z" fill="white"/>
<path d="M289.544 135.734L288.061 136.568L289.544 137.402V135.734Z" fill="white"/>
<path d="M304.29 136.568L302.621 135.642V137.495L304.29 136.568Z" fill="white"/>
<path d="M332.207 135.271L329.981 136.568L332.207 137.865V135.271Z" fill="white"/>
<path d="M347.88 161.121L344.541 159.175V162.974L347.88 161.121Z" fill="white"/>
<path d="M354.093 171.035L350.105 173.351L354.093 175.667V171.035Z" fill="white"/>
<path d="M370.323 197.811L365.222 194.938V200.775L370.323 197.811Z" fill="white"/>
<path d="M375.888 206.798L370.231 210.041L375.888 213.376V206.798Z" fill="white"/>
<path d="M392.86 234.593L385.811 230.516V238.67L392.86 234.593Z" fill="white"/>
<path d="M397.869 242.283L389.985 246.823L397.869 251.363V242.283Z" fill="white"/>
<path d="M415.582 271.283L406.308 265.91V276.75L415.582 271.283Z" fill="white"/>
<path d="M419.848 277.676L409.646 283.606L419.848 289.535V277.676Z" fill="white"/>
<path d="M439.046 308.066L426.433 300.839V315.386L439.046 308.066Z" fill="white"/>
<path d="M442.292 312.421L428.566 320.296L442.292 328.171V312.421Z" fill="white"/>
<path d="M461.769 344.848L446.93 336.232V353.372L461.769 344.848Z" fill="white"/>
<path d="M463.902 348.461L449.063 357.078L463.902 365.695V348.461Z" fill="white"/>
<path d="M482.265 381.538L468.539 373.57V389.506L482.265 381.538Z" fill="white"/>
<path d="M463.066 398.957L450.732 406.091L463.066 413.133V398.957Z" fill="white"/>
<path d="M459.358 418.321L448.136 411.835V424.806L459.358 418.321Z" fill="white"/>
<path d="M440.531 437.87L431.999 442.874L440.531 447.784V437.87Z" fill="white"/>
<path d="M435.522 455.103L428.195 450.841V459.365L435.522 455.103Z" fill="white"/>
<path d="M417.993 476.876L413.356 479.563L417.993 482.25V476.876Z" fill="white"/>
<path d="M411.409 491.793L408.349 490.032V493.553L411.409 491.793Z" fill="white"/>
<path d="M395.458 515.882L394.716 516.346L395.458 516.809V515.882Z" fill="white"/>
<path d="M27.8225 173.351L26.7098 172.702V173.906L27.8225 173.351Z" fill="white"/>
<path d="M34.5925 160.38L33.3868 161.121L34.5925 161.769V160.38Z" fill="white"/>
<path d="M55.7384 123.782L54.7182 124.338L55.7384 124.894V123.782Z" fill="white"/>
<path d="M70.2992 124.338L69.1863 123.689V124.987L70.2992 124.338Z" fill="white"/>
<path d="M98.2149 123.689L97.102 124.338L98.2149 124.987V123.689Z" fill="white"/>
<path d="M112.776 124.338L111.663 123.689V124.987L112.776 124.338Z" fill="white"/>
<path d="M140.691 123.782L139.671 124.338L140.691 124.894V123.782Z" fill="white"/>
<path d="M155.159 124.338L154.232 123.782V124.894L155.159 124.338Z" fill="white"/>
<path d="M183.168 123.782L182.148 124.338L183.168 124.894V123.782Z" fill="white"/>
<path d="M197.636 124.338L196.708 123.782V124.894L197.636 124.338Z" fill="white"/>
<path d="M225.644 123.689L224.624 124.338L225.644 124.987V123.689Z" fill="white"/>
<path d="M240.205 124.338L239.092 123.689V124.987L240.205 124.338Z" fill="white"/>
<path d="M268.121 123.689L267.101 124.338L268.121 124.987V123.689Z" fill="white"/>
<path d="M282.681 124.338L281.568 123.689V124.987L282.681 124.338Z" fill="white"/>
<path d="M310.782 123.412L309.206 124.338L310.782 125.172V123.412Z" fill="white"/>
<path d="M325.622 124.338L323.767 123.226V125.357L325.622 124.338Z" fill="white"/>
<path d="M347.324 136.568L344.819 135.085V138.05L347.324 136.568Z" fill="white"/>
<path d="M353.723 147.13L350.755 148.798L353.723 150.558V147.13Z" fill="white"/>
<path d="M369.582 173.35L365.594 170.941V175.667L369.582 173.35Z" fill="white"/>
<path d="M375.518 182.986L370.973 185.58L375.518 188.175V182.986Z" fill="white"/>
<path d="M391.655 210.041L386.369 206.983V213.191L391.655 210.041Z" fill="white"/>
<path d="M397.127 219.028L391.377 222.363L397.127 225.606V219.028Z" fill="white"/>
<path d="M414.099 246.823L407.05 242.746V250.9L414.099 246.823Z" fill="white"/>
<path d="M419.106 254.514L411.223 259.053L419.106 263.593V254.514Z" fill="white"/>
<path d="M436.913 283.606L427.453 278.139V289.072L436.913 283.606Z" fill="white"/>
<path d="M441.273 289.628L430.607 295.836L441.273 301.951V289.628Z" fill="white"/>
<path d="M460.563 320.296L447.486 312.791V327.8L460.563 320.296Z" fill="white"/>
<path d="M463.531 324.557L449.712 332.618L463.531 340.586V324.557Z" fill="white"/>
<path d="M482.636 357.078L468.354 348.832V365.324L482.636 357.078Z" fill="white"/>
<path d="M484.861 361.247L470.857 369.308L484.861 377.369V361.247Z" fill="white"/>
<path d="M484.305 386.726L471.97 393.861L484.305 400.902V386.726Z" fill="white"/>
<path d="M480.595 406.09L469.373 399.605V412.576L480.595 406.09Z" fill="white"/>
<path d="M461.954 425.362L452.958 430.551L461.954 435.739V425.362Z" fill="white"/>
<path d="M456.947 442.874L449.342 438.426V447.228L456.947 442.874Z" fill="white"/>
<path d="M439.511 464.183L434.039 467.333L439.511 470.483V464.183Z" fill="white"/>
<path d="M433.482 479.563L429.215 477.154V481.972L433.482 479.563Z" fill="white"/>
<path d="M417.066 503.097L415.304 504.116L417.066 505.042V503.097Z" fill="white"/>
<path d="M409.833 516.346L409.184 515.882V516.716L409.833 516.346Z" fill="white"/>
<path d="M27.7299 148.798L26.7097 148.242V149.447L27.7299 148.798Z" fill="white"/>
<path d="M34.5006 136.012L33.5732 136.568L34.5006 137.124V136.012Z" fill="white"/>
<path d="M34.3149 111.83L33.8512 112.108L34.3149 112.386V111.83Z" fill="white"/>
<path d="M48.6901 112.109L48.1336 111.738V112.386L48.6901 112.109Z" fill="white"/>
<path d="M76.8843 111.645L76.1423 112.108L76.8843 112.479V111.645Z" fill="white"/>
<path d="M91.2594 112.108L90.6102 111.645V112.479L91.2594 112.108Z" fill="white"/>
<path d="M119.268 111.83L118.804 112.108L119.268 112.386V111.83Z" fill="white"/>
<path d="M133.643 112.108L133.087 111.83V112.386L133.643 112.108Z" fill="white"/>
<path d="M161.744 111.83L161.281 112.108L161.744 112.386V111.83Z" fill="white"/>
<path d="M176.027 112.108L175.563 111.83V112.386L176.027 112.108Z" fill="white"/>
<path d="M204.221 111.738L203.665 112.109L204.221 112.386V111.738Z" fill="white"/>
<path d="M218.689 112.109L218.04 111.738V112.479L218.689 112.109Z" fill="white"/>
<path d="M246.789 111.645L246.047 112.108L246.789 112.571V111.645Z" fill="white"/>
<path d="M261.258 112.108L260.424 111.552V112.571L261.258 112.108Z" fill="white"/>
<path d="M289.359 111.46L288.339 112.108L289.359 112.664V111.46Z" fill="white"/>
<path d="M304.105 112.108L302.714 111.274V112.849L304.105 112.108Z" fill="white"/>
<path d="M332.114 110.996L330.259 112.108L332.114 113.127V110.996Z" fill="white"/>
<path d="M347.138 112.108L344.912 110.811V113.313L347.138 112.108Z" fill="white"/>
<path d="M353.537 122.856L351.033 124.338L353.537 125.821V122.856Z" fill="white"/>
<path d="M369.118 148.798L365.78 146.945V150.744L369.118 148.798Z" fill="white"/>
<path d="M375.239 158.897L371.529 161.12L375.239 163.251V158.897Z" fill="white"/>
<path d="M391.098 185.58L386.646 182.986V188.175L391.098 185.58Z" fill="white"/>
<path d="M396.756 195.217L392.211 197.811L396.756 200.405V195.217Z" fill="white"/>
<path d="M412.707 222.363L407.699 219.398V225.235L412.707 222.363Z" fill="white"/>
<path d="M418.365 231.351L412.707 234.594L418.365 237.837V231.351Z" fill="white"/>
<path d="M435.244 259.053L428.288 255.069V263.129L435.244 259.053Z" fill="white"/>
<path d="M440.252 266.928L432.555 271.283L440.252 275.73V266.928Z" fill="white"/>
<path d="M458.523 295.836L448.507 290.092V301.58L458.523 295.836Z" fill="white"/>
<path d="M462.696 301.58L451.381 308.066L462.696 314.552V301.58Z" fill="white"/>
<path d="M481.987 332.618L468.632 324.835V340.308L481.987 332.618Z" fill="white"/>
<path d="M484.769 336.788L470.951 344.848L484.769 352.816V336.788Z" fill="white"/>
<path d="M503.411 369.308L489.777 361.526V377.184L503.411 369.308Z" fill="white"/>
<path d="M505.729 374.218L492.837 381.538L505.729 388.95V374.218Z" fill="white"/>
<path d="M502.112 393.861L490.426 387.097V400.532L502.112 393.861Z" fill="white"/>
<path d="M483.192 413.132L474.103 418.321L483.192 423.509V413.132Z" fill="white"/>
<path d="M478.369 430.551L470.486 426.011V435.091L478.369 430.551Z" fill="white"/>
<path d="M460.841 451.768L455.184 455.104L460.841 458.346V451.768Z" fill="white"/>
<path d="M454.998 467.333L450.268 464.647V470.02L454.998 467.333Z" fill="white"/>
<path d="M438.49 490.403L436.079 491.793L438.49 493.183V490.403Z" fill="white"/>
<path d="M431.627 504.116L430.143 503.189V504.949L431.627 504.116Z" fill="white"/>
<path d="M27.5442 124.338L26.895 123.967V124.708L27.5442 124.338Z" fill="white"/>
<path d="M27.1738 99.7857H27.081V99.8783L27.1738 99.7857Z" fill="white"/>
<path d="M55.5527 99.5999L55.1817 99.7852L55.5527 100.063V99.5999Z" fill="white"/>
<path d="M69.836 99.7852L69.465 99.5999V100.063L69.836 99.7852Z" fill="white"/>
<path d="M97.9364 99.6932L97.6581 99.7858L97.9364 99.9711V99.6932Z" fill="white"/>
<path d="M112.127 99.7858L111.941 99.6932V99.9711L112.127 99.7858Z" fill="white"/>
<path d="M140.413 99.7857H140.32L140.413 99.8783V99.7857Z" fill="white"/>
<path d="M154.603 99.7857H154.511V99.8783L154.603 99.7857Z" fill="white"/>
<path d="M182.889 99.6932L182.704 99.7858L182.889 99.9711V99.6932Z" fill="white"/>
<path d="M197.172 99.7858L196.893 99.6932V99.9711L197.172 99.7858Z" fill="white"/>
<path d="M225.459 99.5074L224.995 99.7854L225.459 100.156V99.5074Z" fill="white"/>
<path d="M239.927 99.7855L239.278 99.4149V100.249L239.927 99.7855Z" fill="white"/>
<path d="M268.121 99.3224L267.194 99.7857L268.121 100.342V99.3224Z" fill="white"/>
<path d="M282.589 99.7856L281.569 99.2296V100.434L282.589 99.7856Z" fill="white"/>
<path d="M310.782 99.0439L309.298 99.7851L310.782 100.619V99.0439Z" fill="white"/>
<path d="M325.622 99.7854L323.859 98.8589V100.805L325.622 99.7854Z" fill="white"/>
<path d="M353.537 98.4879L351.219 99.785L353.537 101.175V98.4879Z" fill="white"/>
<path d="M368.747 124.338L365.965 122.763V125.913L368.747 124.338Z" fill="white"/>
<path d="M375.054 134.808L371.9 136.568L375.054 138.329V134.808Z" fill="white"/>
<path d="M390.728 161.12L386.832 158.897V163.251L390.728 161.12Z" fill="white"/>
<path d="M396.57 170.941L392.489 173.35L396.57 175.667V170.941Z" fill="white"/>
<path d="M412.058 197.811L408.07 195.494V200.127L412.058 197.811Z" fill="white"/>
<path d="M417.809 207.724L413.728 210.04L417.809 212.449V207.724Z" fill="white"/>
<path d="M433.76 234.593L429.03 231.814V237.28L433.76 234.593Z" fill="white"/>
<path d="M439.511 243.766L434.131 246.823L439.511 249.881V243.766Z" fill="white"/>
<path d="M456.39 271.283L449.619 267.392V275.267L456.39 271.283Z" fill="white"/>
<path d="M461.583 279.066L453.7 283.606L461.583 288.145V279.066Z" fill="white"/>
<path d="M480.318 308.066L469.467 301.858V314.273L480.318 308.066Z" fill="white"/>
<path d="M484.212 313.347L472.156 320.296L484.212 327.244V313.347Z" fill="white"/>
<path d="M503.411 344.848L489.777 336.973V352.631L503.411 344.848Z" fill="white"/>
<path d="M505.914 349.202L492.374 357.078L505.914 364.953V349.202Z" fill="white"/>
<path d="M523.999 381.538L511.386 374.312V388.858L523.999 381.538Z" fill="white"/>
<path d="M504.708 400.439L494.878 406.091L504.708 411.743V400.439Z" fill="white"/>
<path d="M499.794 418.32L491.539 413.595V423.046L499.794 418.32Z" fill="white"/>
<path d="M482.079 439.63L476.422 442.873L482.079 446.023V439.63Z" fill="white"/>
<path d="M476.237 455.103L471.507 452.416V457.79L476.237 455.103Z" fill="white"/>
<path d="M459.914 477.895L457.039 479.563L459.914 481.231V477.895Z" fill="white"/>
<path d="M453.143 491.793L451.195 490.774V492.905L453.143 491.793Z" fill="white"/>
<path d="M437.84 516.068L437.377 516.346L437.84 516.624V516.068Z" fill="white"/>
<path d="M76.6986 87.5551H76.6059L76.6986 87.6478V87.5551Z" fill="white"/>
<path d="M204.128 87.4626L203.943 87.5553L204.128 87.6479V87.4626Z" fill="white"/>
<path d="M218.503 87.5554L218.132 87.3701V87.7407L218.503 87.5554Z" fill="white"/>
<path d="M246.789 87.1851L246.14 87.5557L246.789 87.9263V87.1851Z" fill="white"/>
<path d="M261.258 87.5556L260.424 87.0924V88.0189L261.258 87.5556Z" fill="white"/>
<path d="M289.359 86.9066L288.339 87.5552L289.359 88.2037V86.9066Z" fill="white"/>
<path d="M304.105 87.5561L302.714 86.8148V88.2973L304.105 87.5561Z" fill="white"/>
<path d="M332.114 86.5366L330.352 87.5557L332.114 88.5749V86.5366Z" fill="white"/>
<path d="M346.952 87.5551L345.005 86.4433V88.7596L346.952 87.5551Z" fill="white"/>
<path d="M368.561 99.7859L366.057 98.3961V101.268L368.561 99.7859Z" fill="white"/>
<path d="M374.868 110.441L372.178 112.109L374.868 113.684V110.441Z" fill="white"/>
<path d="M390.356 136.568L387.017 134.622V138.514L390.356 136.568Z" fill="white"/>
<path d="M396.384 146.76L392.86 148.798L396.384 150.929V146.76Z" fill="white"/>
<path d="M411.78 173.351L408.163 171.22V175.389L411.78 173.351Z" fill="white"/>
<path d="M417.623 183.542L414.099 185.58L417.623 187.619V183.542Z" fill="white"/>
<path d="M432.833 210.041L429.494 208.188V211.986L432.833 210.041Z" fill="white"/>
<path d="M438.862 220.418L435.43 222.363L438.862 224.309V220.418Z" fill="white"/>
<path d="M454.813 246.824L450.361 244.229V249.418L454.813 246.824Z" fill="white"/>
<path d="M460.655 256.088L455.462 259.053L460.655 262.11V256.088Z" fill="white"/>
<path d="M477.906 283.606L470.672 279.437V287.683L477.906 283.606Z" fill="white"/>
<path d="M483.1 290.739L474.382 295.835L483.1 300.838V290.739Z" fill="white"/>
<path d="M502.112 320.295L490.426 313.532V327.059L502.112 320.295Z" fill="white"/>
<path d="M505.636 325.206L492.93 332.619L505.636 339.938V325.206Z" fill="white"/>
<path d="M524.555 357.078L511.108 349.295V364.86L524.555 357.078Z" fill="white"/>
<path d="M527.153 361.618L513.705 369.308L527.153 377.091V361.618Z" fill="white"/>
<path d="M526.41 387.375L515.188 393.861L526.41 400.253V387.375Z" fill="white"/>
<path d="M521.866 406.091L512.406 400.624V411.557L521.866 406.091Z" fill="white"/>
<path d="M503.503 426.937L497.197 430.55L503.503 434.164V426.937Z" fill="white"/>
<path d="M497.567 442.873L492.745 440.001V445.653L497.567 442.873Z" fill="white"/>
<path d="M481.151 465.573L478.184 467.333L481.151 469.001V465.573Z" fill="white"/>
<path d="M474.475 479.563L472.434 478.359V480.768L474.475 479.563Z" fill="white"/>
<path d="M459.172 503.653L458.523 504.116L459.172 504.486V503.653Z" fill="white"/>
<path d="M451.938 516.346L451.752 516.253V516.439L451.938 516.346Z" fill="white"/>
<path d="M225.459 75.1403L225.088 75.3256L225.459 75.5109V75.1403Z" fill="white"/>
<path d="M239.834 75.3258L239.277 75.0478V75.6037L239.834 75.3258Z" fill="white"/>
<path d="M268.028 74.8621L267.286 75.3253L268.028 75.7886V74.8621Z" fill="white"/>
<path d="M282.589 75.326L281.661 74.7701V75.8819L282.589 75.326Z" fill="white"/>
<path d="M310.689 74.5843L309.391 75.3255L310.689 76.0667V74.5843Z" fill="white"/>
<path d="M325.436 75.3258L323.859 74.3993V76.2523L325.436 75.3258Z" fill="white"/>
<path d="M353.444 74.214L351.404 75.3259L353.444 76.4377V74.214Z" fill="white"/>
<path d="M368.284 75.3253L366.243 74.1208V76.5297L368.284 75.3253Z" fill="white"/>
<path d="M374.776 86.1656L372.365 87.5553L374.776 88.9451V86.1656Z" fill="white"/>
<path d="M390.17 112.108L387.11 110.348V113.776L390.17 112.108Z" fill="white"/>
<path d="M396.292 122.486L393.046 124.339L396.292 126.192V122.486Z" fill="white"/>
<path d="M411.595 148.798L408.256 146.853V150.744L411.595 148.798Z" fill="white"/>
<path d="M417.53 159.175L414.284 161.121L417.53 162.974V159.175Z" fill="white"/>
<path d="M432.461 185.581L429.679 184.006V187.156L432.461 185.581Z" fill="white"/>
<path d="M438.583 196.328L435.986 197.81L438.583 199.293V196.328Z" fill="white"/>
<path d="M453.607 222.363L451.01 220.788V223.845L453.607 222.363Z" fill="white"/>
<path d="M459.914 232.926L456.946 234.593L459.914 236.261V232.926Z" fill="white"/>
<path d="M475.958 259.053L471.599 256.552V261.555L475.958 259.053Z" fill="white"/>
<path d="M481.987 268.225L476.608 271.283L481.987 274.433V268.225Z" fill="white"/>
<path d="M499.886 295.836L491.539 291.018V300.654L499.886 295.836Z" fill="white"/>
<path d="M504.801 302.229L494.692 308.066L504.801 313.903V302.229Z" fill="white"/>
<path d="M523.999 332.618L511.386 325.299V339.845L523.999 332.618Z" fill="white"/>
<path d="M527.153 337.065L513.705 344.848L527.153 352.538V337.065Z" fill="white"/>
<path d="M545.98 369.308L532.254 361.433V377.276L545.98 369.308Z" fill="white"/>
<path d="M548.205 374.034L535.221 381.539L548.205 389.136V374.034Z" fill="white"/>
<path d="M544.403 393.861L532.995 387.282V400.346L544.403 393.861Z" fill="white"/>
<path d="M525.112 413.966L517.693 418.321L525.112 422.675V413.966Z" fill="white"/>
<path d="M519.455 430.551L513.612 427.215V433.979L519.455 430.551Z" fill="white"/>
<path d="M502.483 453.158L499.237 455.104L502.483 456.957V453.158Z" fill="white"/>
<path d="M495.898 467.333L493.579 465.943V468.63L495.898 467.333Z" fill="white"/>
<path d="M480.41 491.423L479.668 491.793L480.41 492.257V491.423Z" fill="white"/>
<path d="M473.269 504.116L472.99 503.93V504.208L473.269 504.116Z" fill="white"/>
<path d="M204.128 63.003L204.035 63.0957H204.128V63.003Z" fill="white"/>
<path d="M218.41 63.0957L218.132 63.003V63.1883L218.41 63.0957Z" fill="white"/>
<path d="M246.697 62.8173L246.233 63.0952L246.697 63.3732V62.8173Z" fill="white"/>
<path d="M261.165 63.0953L260.515 62.632V63.4659L261.165 63.0953Z" fill="white"/>
<path d="M289.359 62.5395L288.339 63.0954L289.359 63.6513V62.5395Z" fill="white"/>
<path d="M304.012 63.0957L302.807 62.3545V63.7443L304.012 63.0957Z" fill="white"/>
<path d="M332.021 62.1695L330.444 63.096L332.021 63.9299V62.1695Z" fill="white"/>
<path d="M346.859 63.0954L345.097 62.0763V64.1146L346.859 63.0954Z" fill="white"/>
<path d="M374.682 61.891L372.642 63.0955L374.682 64.2999V61.891Z" fill="white"/>
<path d="M389.893 87.5555L387.296 86.0731V89.1306L389.893 87.5555Z" fill="white"/>
<path d="M396.199 98.2104L393.324 99.7854L396.199 101.453V98.2104Z" fill="white"/>
<path d="M411.409 124.338L408.349 122.577V126.098L411.409 124.338Z" fill="white"/>
<path d="M417.437 134.808L414.469 136.568L417.437 138.329V134.808Z" fill="white"/>
<path d="M432.461 161.121L429.679 159.546V162.604L432.461 161.121Z" fill="white"/>
<path d="M438.49 171.961L436.079 173.351L438.49 174.74V171.961Z" fill="white"/>
<path d="M453.051 197.811L451.289 196.791V198.922L453.051 197.811Z" fill="white"/>
<path d="M459.542 209.115L457.78 210.041L459.542 211.06V209.115Z" fill="white"/>
<path d="M474.567 234.593L472.342 233.296V235.797L474.567 234.593Z" fill="white"/>
<path d="M481.06 245.248L478.277 246.823L481.06 248.398V245.248Z" fill="white"/>
<path d="M497.475 271.283L492.745 268.596V274.063L497.475 271.283Z" fill="white"/>
<path d="M503.411 280.085L497.382 283.606L503.411 287.034V280.085Z" fill="white"/>
<path d="M522.144 308.066L512.314 302.414V313.717L522.144 308.066Z" fill="white"/>
<path d="M526.503 313.718L515.003 320.296L526.503 326.874V313.718Z" fill="white"/>
<path d="M545.98 344.848L532.254 336.88V352.724L545.98 344.848Z" fill="white"/>
<path d="M548.577 348.925L534.48 357.078L548.577 365.232V348.925Z" fill="white"/>
<path d="M567.032 381.538L553.584 373.756V389.321L567.032 381.538Z" fill="white"/>
<path d="M547.092 400.532L537.447 406.091L547.092 411.65V400.532Z" fill="white"/>
<path d="M541.806 418.321L534.294 413.966V422.675L541.806 418.321Z" fill="white"/>
<path d="M523.999 440.465L520.011 442.874L523.999 445.19V440.465Z" fill="white"/>
<path d="M517.507 455.103L514.632 453.436V456.771L517.507 455.103Z" fill="white"/>
<path d="M501.741 478.915L500.721 479.563L501.741 480.212V478.915Z" fill="white"/>
<path d="M494.599 491.793L494.228 491.608V492.071L494.599 491.793Z" fill="white"/>
<path d="M225.366 50.6807L225.088 50.866L225.366 50.9587V50.6807Z" fill="white"/>
<path d="M239.741 50.8659L239.37 50.588V51.0512L239.741 50.8659Z" fill="white"/>
<path d="M268.028 50.4022L267.286 50.8655L268.028 51.2361V50.4022Z" fill="white"/>
<path d="M282.589 50.8656L281.661 50.3097V51.3289L282.589 50.8656Z" fill="white"/>
<path d="M310.689 50.1247L309.484 50.8659L310.689 51.5145V50.1247Z" fill="white"/>
<path d="M325.343 50.8661L323.952 50.0322V51.6073L325.343 50.8661Z" fill="white"/>
<path d="M353.352 49.8462L351.589 50.8654L353.352 51.7919V49.8462Z" fill="white"/>
<path d="M368.098 50.8655L366.243 49.7537V51.8847L368.098 50.8655Z" fill="white"/>
<path d="M389.614 63.0956L387.389 61.7985V64.3001L389.614 63.0956Z" fill="white"/>
<path d="M396.014 73.9358L393.602 75.3255L396.014 76.7153V73.9358Z" fill="white"/>
<path d="M411.316 99.7854L408.441 98.2104V101.453L411.316 99.7854Z" fill="white"/>
<path d="M417.437 110.441L414.562 112.109L417.437 113.776V110.441Z" fill="white"/>
<path d="M432.461 136.568L429.679 134.993V138.143L432.461 136.568Z" fill="white"/>
<path d="M438.49 147.409L436.079 148.799L438.49 150.281V147.409Z" fill="white"/>
<path d="M453.143 173.35L451.195 172.239V174.37L453.143 173.35Z" fill="white"/>
<path d="M459.449 184.747L457.966 185.581L459.449 186.414V184.747Z" fill="white"/>
<path d="M473.733 210.041L472.805 209.485V210.689L473.733 210.041Z" fill="white"/>
<path d="M480.595 221.622L479.39 222.363L480.595 223.012V221.622Z" fill="white"/>
<path d="M495.805 246.823L493.579 245.619V248.12L495.805 246.823Z" fill="white"/>
<path d="M502.483 257.293L499.33 259.053L502.483 260.906V257.293Z" fill="white"/>
<path d="M519.362 283.606L513.705 280.27V286.848L519.362 283.606Z" fill="white"/>
<path d="M525.204 291.389L517.507 295.836L525.204 300.283V291.389Z" fill="white"/>
<path d="M544.495 320.295L532.995 313.624V326.966L544.495 320.295Z" fill="white"/>
<path d="M548.205 325.021L535.221 332.618L548.205 340.123V325.021Z" fill="white"/>
<path d="M567.774 357.078L553.213 348.647V365.509L567.774 357.078Z" fill="white"/>
<path d="M570 360.877L555.347 369.308L570 377.74V360.877Z" fill="white"/>
<path d="M569.165 386.726L557.016 393.861L569.165 400.902V386.726Z" fill="white"/>
<path d="M564.714 406.091L554.698 400.346V411.835L564.714 406.091Z" fill="white"/>
<path d="M545.794 427.308L540.137 430.551L545.794 433.793V427.308Z" fill="white"/>
<path d="M539.395 442.873L535.5 440.557V445.097L539.395 442.873Z" fill="white"/>
<path d="M523.165 466.406L521.588 467.333L523.165 468.259V466.406Z" fill="white"/>
<path d="M516.116 479.563L515.282 479.1V480.026L516.116 479.563Z" fill="white"/>
<path d="M204.128 38.5434H204.035L204.128 38.6361V38.5434Z" fill="white"/>
<path d="M218.41 38.5429L218.132 38.4502V38.7282L218.41 38.5429Z" fill="white"/>
<path d="M246.697 38.2649L246.233 38.5429L246.697 38.8209V38.2649Z" fill="white"/>
<path d="M261.073 38.5429L260.516 38.2649V38.9135L261.073 38.5429Z" fill="white"/>
<path d="M289.359 38.0799L288.431 38.5432L289.359 39.0991V38.0799Z" fill="white"/>
<path d="M303.92 38.5427L302.807 37.8942V39.1913L303.92 38.5427Z" fill="white"/>
<path d="M332.021 37.7089L330.537 38.5428L332.021 39.3766V37.7089Z" fill="white"/>
<path d="M346.674 38.5428L345.19 37.7089V39.4693L346.674 38.5428Z" fill="white"/>
<path d="M374.59 37.5239L372.828 38.5431L374.59 39.5622V37.5239Z" fill="white"/>
<path d="M389.429 38.5431L387.481 37.5239V39.6549L389.429 38.5431Z" fill="white"/>
<path d="M395.921 49.6612L393.881 50.8657L395.921 52.0701V49.6612Z" fill="white"/>
<path d="M411.038 75.3255L408.534 73.9358V76.7153L411.038 75.3255Z" fill="white"/>
<path d="M417.344 86.0731L414.655 87.5555L417.344 89.1306V86.0731Z" fill="white"/>
<path d="M432.369 112.108L429.773 110.533V113.59L432.369 112.108Z" fill="white"/>
<path d="M438.583 122.856L435.986 124.338L438.583 125.821V122.856Z" fill="white"/>
<path d="M453.237 148.798L451.196 147.686V150.003L453.237 148.798Z" fill="white"/>
<path d="M459.542 160.101L457.78 161.121L459.542 162.047V160.101Z" fill="white"/>
<path d="M473.733 185.581L472.805 185.025V186.137L473.733 185.581Z" fill="white"/>
<path d="M480.41 197.533L479.761 197.81L480.41 198.181V197.533Z" fill="white"/>
<path d="M494.785 222.363L494.136 221.993V222.641L494.785 222.363Z" fill="white"/>
<path d="M501.741 234.038L500.814 234.593L501.741 235.149V234.038Z" fill="white"/>
<path d="M517.321 259.053L514.632 257.57V260.628L517.321 259.053Z" fill="white"/>
<path d="M523.906 269.059L520.104 271.283L523.906 273.599V269.059Z" fill="white"/>
<path d="M541.899 295.836L534.294 291.389V300.283L541.899 295.836Z" fill="white"/>
<path d="M547.185 302.414L537.354 308.066L547.185 313.81V302.414Z" fill="white"/>
<path d="M566.939 332.618L553.584 324.928V340.308L566.939 332.618Z" fill="white"/>
<path d="M570 336.417L555.439 344.848L570 353.187V336.417Z" fill="white"/>
<path d="M567.774 413.688L559.798 418.321L567.774 422.953V413.688Z" fill="white"/>
<path d="M561.931 430.551L556.089 427.215V433.979L561.931 430.551Z" fill="white"/>
<path d="M544.774 453.621L542.177 455.103L544.774 456.585V453.621Z" fill="white"/>
<path d="M537.726 467.334L536.334 466.5V468.167L537.726 467.334Z" fill="white"/>
<path d="M197.079 26.3129H196.986V26.4056L197.079 26.3129Z" fill="white"/>
<path d="M225.459 26.1277L225.088 26.313L225.459 26.4983V26.1277Z" fill="white"/>
<path d="M239.834 26.3131L239.277 26.0352V26.5911L239.834 26.3131Z" fill="white"/>
<path d="M268.028 25.9426L267.286 26.3132L268.028 26.7765V25.9426Z" fill="white"/>
<path d="M282.589 26.3127L281.661 25.8494V26.8686L282.589 26.3127Z" fill="white"/>
<path d="M310.689 25.6649L309.484 26.3134L310.689 26.962V25.6649Z" fill="white"/>
<path d="M325.343 26.3128L323.952 25.5716V27.0541L325.343 26.3128Z" fill="white"/>
<path d="M353.259 25.3866L351.682 26.3131L353.259 27.2396V25.3866Z" fill="white"/>
<path d="M368.005 26.3131L366.336 25.3866V27.3323L368.005 26.3131Z" fill="white"/>
<path d="M395.828 25.2016L393.973 26.3134L395.828 27.4252V25.2016Z" fill="white"/>
<path d="M410.76 50.8658L408.72 49.5687V52.0703L410.76 50.8658Z" fill="white"/>
<path d="M417.251 61.7985L414.933 63.0956L417.251 64.3927V61.7985Z" fill="white"/>
<path d="M432.277 87.5555L429.772 86.0731V89.0379L432.277 87.5555Z" fill="white"/>
<path d="M438.583 98.3961L435.986 99.7859L438.583 101.268V98.3961Z" fill="white"/>
<path d="M453.329 124.338L451.103 123.041V125.635L453.329 124.338Z" fill="white"/>
<path d="M459.635 135.456L457.595 136.568L459.635 137.773V135.456Z" fill="white"/>
<path d="M473.917 161.121L472.619 160.287V161.862L473.917 161.121Z" fill="white"/>
<path d="M480.503 172.794L479.575 173.35L480.503 173.814V172.794Z" fill="white"/>
<path d="M494.414 197.81L494.322 197.718V197.903L494.414 197.81Z" fill="white"/>
<path d="M501.463 210.041H501.37L501.463 210.133V210.041Z" fill="white"/>
<path d="M515.931 234.593L515.374 234.223V234.871L515.931 234.593Z" fill="white"/>
<path d="M523.072 246.082L521.773 246.824L523.072 247.565V246.082Z" fill="white"/>
<path d="M539.302 271.283L535.592 269.152V273.507L539.302 271.283Z" fill="white"/>
<path d="M545.701 280.456L540.322 283.606L545.701 286.664V280.456Z" fill="white"/>
<path d="M564.714 308.065L554.698 302.321V313.902L564.714 308.065Z" fill="white"/>
<path d="M569.165 313.347L557.016 320.296L569.165 327.337V313.347Z" fill="white"/>
<path d="M566.476 440.465L562.395 442.874L566.476 445.19V440.465Z" fill="white"/>
<path d="M559.798 455.103L557.201 453.528V456.586L559.798 455.103Z" fill="white"/>
<path d="M544.032 479.285L543.568 479.563L544.032 479.841V479.285Z" fill="white"/>
<path d="M204.128 13.9904L203.943 14.083L204.128 14.1757V13.9904Z" fill="white"/>
<path d="M218.41 14.0832L218.132 13.8979V14.2685L218.41 14.0832Z" fill="white"/>
<path d="M246.697 13.8054L246.233 14.0833L246.697 14.3613V13.8054Z" fill="white"/>
<path d="M261.165 14.0827L260.515 13.7121V14.4533L261.165 14.0827Z" fill="white"/>
<path d="M289.359 13.5271L288.339 14.083L289.359 14.6389V13.5271Z" fill="white"/>
<path d="M303.92 14.0829L302.807 13.4343V14.7315L303.92 14.0829Z" fill="white"/>
<path d="M331.928 13.3418L330.63 14.083L331.928 14.8243V13.3418Z" fill="white"/>
<path d="M346.674 14.0832L345.19 13.2493V14.9171L346.674 14.0832Z" fill="white"/>
<path d="M374.59 13.0643L372.828 14.0835L374.59 15.1026V13.0643Z" fill="white"/>
<path d="M389.336 14.0829L387.481 12.9711V15.1947L389.336 14.0829Z" fill="white"/>
<path d="M410.667 26.3134L408.72 25.2016V27.4252L410.667 26.3134Z" fill="white"/>
<path d="M417.159 37.3382L415.118 38.5426L417.159 39.7471V37.3382Z" fill="white"/>
<path d="M432.184 63.0956L429.865 61.7985V64.3927L432.184 63.0956Z" fill="white"/>
<path d="M438.49 73.9358L436.079 75.3255L438.49 76.7153V73.9358Z" fill="white"/>
<path d="M453.514 99.7859L451.01 98.3961V101.268L453.514 99.7859Z" fill="white"/>
<path d="M459.635 110.811L457.409 112.108L459.635 113.405V110.811Z" fill="white"/>
<path d="M474.196 136.568L472.527 135.642V137.587L474.196 136.568Z" fill="white"/>
<path d="M480.595 148.057L479.297 148.798L480.595 149.539V148.057Z" fill="white"/>
<path d="M494.693 173.351L494.137 173.073V173.629L494.693 173.351Z" fill="white"/>
<path d="M501.463 185.488L501.277 185.581L501.463 185.674V185.488Z" fill="white"/>
<path d="M537.633 246.823L536.427 246.175V247.472L537.633 246.823Z" fill="white"/>
<path d="M544.588 257.849L542.455 259.053L544.588 260.35V257.849Z" fill="white"/>
<path d="M561.653 283.606L556.274 280.456V286.756L561.653 283.606Z" fill="white"/>
<path d="M567.774 291.295L559.891 295.835L567.774 300.375V291.295Z" fill="white"/>
<path d="M565.641 466.406L564.065 467.333L565.641 468.167V466.406Z" fill="white"/>
<path d="M558.407 479.564L557.851 479.193V479.934L558.407 479.564Z" fill="white"/>
<path d="M197.079 1.85322L196.986 1.76057V1.85322H197.079Z" fill="white"/>
<path d="M225.459 1.57556L225.088 1.85351L225.459 2.03881V1.57556Z" fill="white"/>
<path d="M239.834 1.85351L239.277 1.57556V2.13147L239.834 1.85351Z" fill="white"/>
<path d="M268.028 1.38981L267.286 1.85307L268.028 2.31632V1.38981Z" fill="white"/>
<path d="M282.589 1.85321L281.661 1.2973V2.31647L282.589 1.85321Z" fill="white"/>
<path d="M310.597 1.20455L309.485 1.85311L310.597 2.50167V1.20455Z" fill="white"/>
<path d="M325.343 1.8534L323.952 1.01954V2.59461L325.343 1.8534Z" fill="white"/>
<path d="M353.259 0.926296L351.682 1.85281L353.259 2.68667V0.926296Z" fill="white"/>
<path d="M368.005 1.85281L366.336 0.926296V2.77932L368.005 1.85281Z" fill="white"/>
<path d="M395.828 0.741281L393.973 1.8531L395.828 2.87226V0.741281Z" fill="white"/>
<path d="M410.667 1.853L408.72 0.648529V2.96481L410.667 1.853Z" fill="white"/>
<path d="M417.159 12.8786L415.118 14.083L417.159 15.2875V12.8786Z" fill="white"/>
<path d="M432.091 38.5426L429.865 37.3382V39.8397L432.091 38.5426Z" fill="white"/>
<path d="M438.397 49.5687L436.264 50.8658L438.397 52.0703V49.5687Z" fill="white"/>
<path d="M453.421 75.3254L451.103 74.0283V76.6225L453.421 75.3254Z" fill="white"/>
<path d="M459.728 86.1656L457.317 87.5553L459.728 88.9451V86.1656Z" fill="white"/>
<path d="M474.475 112.108L472.434 110.904V113.313L474.475 112.108Z" fill="white"/>
<path d="M480.781 123.319L479.019 124.338L480.781 125.358V123.319Z" fill="white"/>
<path d="M495.063 148.798L493.95 148.242V149.447L495.063 148.798Z" fill="white"/>
<path d="M501.648 160.657L500.999 161.12L501.648 161.491V160.657Z" fill="white"/>
<path d="M543.939 234.5L543.754 234.593L543.939 234.686V234.5Z" fill="white"/>
<path d="M559.428 259.053L557.387 257.849V260.258L559.428 259.053Z" fill="white"/>
<path d="M566.29 269.245L562.766 271.283L566.29 273.414V269.245Z" fill="white"/>
<path d="M432.091 14.0829L429.865 12.7858V15.3801L432.091 14.0829Z" fill="white"/>
<path d="M438.397 25.1091L436.264 26.3136L438.397 27.6107V25.1091Z" fill="white"/>
<path d="M453.421 50.866L451.103 49.4762V52.1631L453.421 50.866Z" fill="white"/>
<path d="M459.728 61.706L457.409 63.0958L459.728 64.3929V61.706Z" fill="white"/>
<path d="M474.66 87.5559L472.342 86.2588V88.9457L474.66 87.5559Z" fill="white"/>
<path d="M480.874 98.5811L478.741 99.7856L480.874 101.083V98.5811Z" fill="white"/>
<path d="M495.435 124.338L493.765 123.412V125.265L495.435 124.338Z" fill="white"/>
<path d="M501.834 135.827L500.536 136.568L501.834 137.309V135.827Z" fill="white"/>
<path d="M515.931 161.12L515.374 160.75V161.398L515.931 161.12Z" fill="white"/>
<path d="M522.701 173.165L522.516 173.351L522.701 173.443V173.165Z" fill="white"/>
<path d="M558.129 234.593L558.036 234.5V234.686L558.129 234.593Z" fill="white"/>
<path d="M565.456 246.267L564.528 246.823L565.456 247.378V246.267Z" fill="white"/>
<path d="M438.397 0.556022L436.264 1.85314L438.397 3.15026V0.556022Z" fill="white"/>
<path d="M453.421 26.313L451.103 25.0159V27.6101L453.421 26.313Z" fill="white"/>
<path d="M459.728 37.2464L457.409 38.5435L459.728 39.9333V37.2464Z" fill="white"/>
<path d="M474.66 63.0958L472.342 61.706V64.4855L474.66 63.0958Z" fill="white"/>
<path d="M480.967 74.0283L478.648 75.3254L480.967 76.6225V74.0283Z" fill="white"/>
<path d="M495.712 99.7857L493.672 98.6739V100.99L495.712 99.7857Z" fill="white"/>
<path d="M502.019 110.996L500.164 112.108L502.019 113.127V110.996Z" fill="white"/>
<path d="M516.394 136.568L515.188 135.827V137.309L516.394 136.568Z" fill="white"/>
<path d="M522.979 148.335L522.052 148.798L522.979 149.354V148.335Z" fill="white"/>
<path d="M536.983 173.351L536.705 173.165V173.443L536.983 173.351Z" fill="white"/>
<path d="M453.421 1.85328L451.103 0.463514V3.1504L453.421 1.85328Z" fill="white"/>
<path d="M459.728 12.6933L457.317 14.0831L459.728 15.4728V12.6933Z" fill="white"/>
<path d="M474.66 38.5429L472.342 37.1531V39.9327L474.66 38.5429Z" fill="white"/>
<path d="M480.967 49.4762L478.555 50.866L480.967 52.2557V49.4762Z" fill="white"/>
<path d="M495.898 75.3254L493.579 74.0283V76.6225L495.898 75.3254Z" fill="white"/>
<path d="M502.112 86.2588L499.886 87.5559L502.112 88.8531V86.2588Z" fill="white"/>
<path d="M516.765 112.108L515.003 111.089V113.127L516.765 112.108Z" fill="white"/>
<path d="M523.165 123.412L521.588 124.338L523.165 125.265V123.412Z" fill="white"/>
<path d="M537.447 148.798L536.52 148.335V149.354L537.447 148.798Z" fill="white"/>
<path d="M544.125 160.75L543.476 161.12L544.125 161.398V160.75Z" fill="white"/>
<path d="M474.753 14.0832L472.249 12.6008V15.5656L474.753 14.0832Z" fill="white"/>
<path d="M481.06 24.9231L478.463 26.3129L481.06 27.7953V24.9231Z" fill="white"/>
<path d="M495.991 50.8654L493.487 49.3829V52.2551L495.991 50.8654Z" fill="white"/>
<path d="M502.205 61.706L499.793 63.0958L502.205 64.4855V61.706Z" fill="white"/>
<path d="M517.137 87.5559L514.818 86.2588V88.9457L517.137 87.5559Z" fill="white"/>
<path d="M523.35 98.5811L521.217 99.7856L523.35 100.99V98.5811Z" fill="white"/>
<path d="M537.91 124.338L536.241 123.412V125.265L537.91 124.338Z" fill="white"/>
<path d="M544.311 135.827L543.012 136.568L544.311 137.309V135.827Z" fill="white"/>
<path d="M558.5 161.12L557.851 160.75V161.398L558.5 161.12Z" fill="white"/>
<path d="M565.27 173.165L564.899 173.351L565.27 173.536V173.165Z" fill="white"/>
<path d="M481.06 0.370274L478.463 1.8527L481.06 3.33512V0.370274Z" fill="white"/>
<path d="M496.084 26.313L493.487 24.8306V27.7954L496.084 26.313Z" fill="white"/>
<path d="M502.297 37.0604L499.701 38.5428L502.297 40.1179V37.0604Z" fill="white"/>
<path d="M517.23 63.0959L514.726 61.6135V64.4857L517.23 63.0959Z" fill="white"/>
<path d="M523.443 73.9358L521.032 75.3255L523.443 76.7153V73.9358Z" fill="white"/>
<path d="M538.282 99.7856L536.056 98.5811V101.083L538.282 99.7856Z" fill="white"/>
<path d="M544.588 110.904L542.548 112.108L544.588 113.22V110.904Z" fill="white"/>
<path d="M559.056 136.568L557.572 135.734V137.402L559.056 136.568Z" fill="white"/>
<path d="M565.456 148.242L564.435 148.798L565.456 149.447V148.242Z" fill="white"/>
<path d="M496.084 1.85284L493.487 0.277767V3.33526L496.084 1.85284Z" fill="white"/>
<path d="M502.297 12.5083L499.608 14.0834L502.297 15.6584V12.5083Z" fill="white"/>
<path d="M517.414 38.543L514.632 36.9679V40.118L517.414 38.543Z" fill="white"/>
<path d="M523.535 49.2909L520.938 50.866L523.535 52.3484V49.2909Z" fill="white"/>
<path d="M538.467 75.3257L535.963 73.8433V76.8081L538.467 75.3257Z" fill="white"/>
<path d="M544.681 86.1656L542.27 87.5553L544.681 88.9451V86.1656Z" fill="white"/>
<path d="M559.335 112.108L557.387 110.904V113.22L559.335 112.108Z" fill="white"/>
<path d="M565.734 123.319L563.972 124.338L565.734 125.358V123.319Z" fill="white"/>
<path d="M517.507 14.0828L514.632 12.4151V15.7505L517.507 14.0828Z" fill="white"/>
<path d="M523.629 24.6456L520.754 26.3133L523.629 27.981V24.6456Z" fill="white"/>
<path d="M538.653 50.866L535.871 49.2909V52.4411L538.653 50.866Z" fill="white"/>
<path d="M544.774 61.5202L542.084 63.0953L544.774 64.6704V61.5202Z" fill="white"/>
<path d="M559.705 87.5553L557.201 86.1656V89.0378L559.705 87.5553Z" fill="white"/>
<path d="M565.919 98.4879L563.6 99.785L565.919 101.175V98.4879Z" fill="white"/>
<path d="M523.629 0.185992L520.754 1.85371L523.629 3.42879V0.185992Z" fill="white"/>
<path d="M538.746 26.3133L535.871 24.6456V27.981L538.746 26.3133Z" fill="white"/>
<path d="M544.867 36.8754L541.992 38.5431L544.867 40.2108V36.8754Z" fill="white"/>
<path d="M559.891 63.0953L557.109 61.5202V64.6704L559.891 63.0953Z" fill="white"/>
<path d="M566.012 73.7508L563.322 75.3258L566.012 76.9009V73.7508Z" fill="white"/>
<path d="M538.746 1.85313L535.871 0.0927517V3.52085L538.746 1.85313Z" fill="white"/>
<path d="M544.867 12.3225L541.899 14.0829L544.867 15.8433V12.3225Z" fill="white"/>
<path d="M559.984 38.5431L557.109 36.8754V40.3035L559.984 38.5431Z" fill="white"/>
<path d="M566.104 49.1052L563.137 50.8656L566.104 52.5333V49.1052Z" fill="white"/>
<path d="M560.076 14.0829L557.016 12.3225V15.8433L560.076 14.0829Z" fill="white"/>
<path d="M566.197 24.5531L563.044 26.3134L566.197 28.0738V24.5531Z" fill="white"/>
<path d="M566.197 0L563.044 1.85303L566.197 3.6134V0Z" fill="white"/>
<path d="M228.52 517.457L228.427 517.365V517.55L228.52 517.457Z" fill="white"/>
<path d="M214.329 517.272L214.051 517.458L214.329 517.643V517.272Z" fill="white"/>
<path d="M207.374 505.227L207.096 505.042V505.32L207.374 505.227Z" fill="white"/>
<path d="M193.091 480.583L192.906 480.675L193.091 480.768V480.583Z" fill="white"/>
<path d="M186.043 468.445H185.95V468.538L186.043 468.445Z" fill="white"/>
<path d="M235.567 529.688H235.474L235.567 529.78V529.688Z" fill="white"/>
<path d="M207.467 529.687L207.003 529.409V529.965L207.467 529.687Z" fill="white"/>
<path d="M193.184 504.95L192.721 505.228L193.184 505.413V504.95Z" fill="white"/>
<path d="M186.228 492.997L185.857 492.719V493.182L186.228 492.997Z" fill="white"/>
<path d="M171.853 468.26L171.574 468.445L171.853 468.63V468.26Z" fill="white"/>
<path d="M164.897 456.215L164.619 456.122V456.308L164.897 456.215Z" fill="white"/>
<path d="M150.615 431.663H150.522L150.615 431.755V431.663Z" fill="white"/>
<path d="M143.567 419.433H143.474V419.525L143.567 419.433Z" fill="white"/>
<path d="M228.613 541.917L228.334 541.824V542.102L228.613 541.917Z" fill="white"/>
<path d="M214.422 541.64L213.958 541.918L214.422 542.196V541.64Z" fill="white"/>
<path d="M193.277 529.317L192.535 529.687L193.277 530.058V529.317Z" fill="white"/>
<path d="M186.414 517.458L185.764 517.087V517.828L186.414 517.458Z" fill="white"/>
<path d="M171.946 492.627L171.389 492.998L171.946 493.276V492.627Z" fill="white"/>
<path d="M165.083 480.675L164.526 480.397V481.045L165.083 480.675Z" fill="white"/>
<path d="M150.708 455.937L150.337 456.215L150.708 456.4V455.937Z" fill="white"/>
<path d="M143.751 443.985L143.38 443.707V444.171L143.751 443.985Z" fill="white"/>
<path d="M129.376 419.34L129.191 419.433L129.376 419.618V419.34Z" fill="white"/>
<path d="M122.328 407.202L122.142 407.11V407.295L122.328 407.202Z" fill="white"/>
<path d="M108.138 382.65L108.046 382.743H108.138V382.65Z" fill="white"/>
<path d="M249.757 554.24L249.665 554.147V554.24H249.757Z" fill="white"/>
<path d="M235.567 554.055L235.289 554.24L235.567 554.333V554.055Z" fill="white"/>
<path d="M207.652 554.241L207.003 553.777V554.611L207.652 554.241Z" fill="white"/>
<path d="M193.277 553.685L192.442 554.24L193.277 554.704V553.685Z" fill="white"/>
<path d="M186.506 541.917L185.672 541.454V542.473L186.506 541.917Z" fill="white"/>
<path d="M172.038 516.994L171.204 517.458L172.038 517.921V516.994Z" fill="white"/>
<path d="M165.269 505.227L164.434 504.764V505.69L165.269 505.227Z" fill="white"/>
<path d="M150.801 480.304L150.059 480.675L150.801 481.138V480.304Z" fill="white"/>
<path d="M143.938 468.445L143.196 468.075V468.816L143.938 468.445Z" fill="white"/>
<path d="M129.469 443.614L129.005 443.985L129.469 444.263V443.614Z" fill="white"/>
<path d="M122.514 431.663L122.05 431.385V431.941L122.514 431.663Z" fill="white"/>
<path d="M108.231 407.017L107.86 407.202L108.231 407.388V407.017Z" fill="white"/>
<path d="M101.183 394.973L100.905 394.787V395.158L101.183 394.973Z" fill="white"/>
<path d="M86.9007 370.328L86.7152 370.42L86.9007 370.513V370.328Z" fill="white"/>
<path d="M79.8514 358.19H79.7586V358.283L79.8514 358.19Z" fill="white"/>
<path d="M172.131 541.362L171.111 541.917L172.131 542.566V541.362Z" fill="white"/>
<path d="M165.454 529.688L164.341 529.039V530.336L165.454 529.688Z" fill="white"/>
<path d="M150.893 504.672L149.873 505.228L150.893 505.784V504.672Z" fill="white"/>
<path d="M144.123 492.998L143.103 492.349V493.554L144.123 492.998Z" fill="white"/>
<path d="M129.562 467.982L128.727 468.445L129.562 469.001V467.982Z" fill="white"/>
<path d="M122.792 456.215L121.957 455.751V456.678L122.792 456.215Z" fill="white"/>
<path d="M108.324 431.292L107.582 431.662L108.324 432.125V431.292Z" fill="white"/>
<path d="M101.369 419.432L100.812 419.154V419.803L101.369 419.432Z" fill="white"/>
<path d="M86.9925 394.695L86.5288 394.973L86.9925 395.251V394.695Z" fill="white"/>
<path d="M80.0371 382.742L79.6661 382.464V382.927L80.0371 382.742Z" fill="white"/>
<path d="M65.6619 358.097L65.4764 358.19L65.6619 358.375V358.097Z" fill="white"/>
<path d="M58.6136 345.96L58.4282 345.867V346.053L58.6136 345.96Z" fill="white"/>
<path d="M165.546 554.24L164.248 553.499V554.981L165.546 554.24Z" fill="white"/>
<path d="M150.985 528.946L149.687 529.687L150.985 530.428V528.946Z" fill="white"/>
<path d="M144.308 517.458L143.103 516.717V518.199L144.308 517.458Z" fill="white"/>
<path d="M129.748 492.256L128.542 492.998L129.748 493.646V492.256Z" fill="white"/>
<path d="M122.978 480.675L121.865 480.027V481.324L122.978 480.675Z" fill="white"/>
<path d="M108.417 455.659L107.397 456.215L108.417 456.77V455.659Z" fill="white"/>
<path d="M101.553 443.985L100.719 443.429V444.448L101.553 443.985Z" fill="white"/>
<path d="M87.0854 418.969L86.3434 419.433L87.0854 419.896V418.969Z" fill="white"/>
<path d="M80.2227 407.203L79.5735 406.832V407.573L80.2227 407.203Z" fill="white"/>
<path d="M65.7548 382.372L65.1983 382.743L65.7548 383.021V382.372Z" fill="white"/>
<path d="M58.7993 370.42L58.3356 370.142V370.698L58.7993 370.42Z" fill="white"/>
<path d="M44.4241 345.775L44.1459 345.96L44.4241 346.145V345.775Z" fill="white"/>
<path d="M37.3758 333.73L37.1903 333.638V333.823L37.3758 333.73Z" fill="white"/>
<path d="M151.079 553.314L149.503 554.24L151.079 555.074V553.314Z" fill="white"/>
<path d="M144.494 541.918L143.01 541.084V542.844L144.494 541.918Z" fill="white"/>
<path d="M129.748 516.623L128.356 517.457L129.748 518.291V516.623Z" fill="white"/>
<path d="M123.163 505.227L121.771 504.394V506.061L123.163 505.227Z" fill="white"/>
<path d="M108.51 479.934L107.211 480.675L108.51 481.416V479.934Z" fill="white"/>
<path d="M101.832 468.445L100.626 467.704V469.186L101.832 468.445Z" fill="white"/>
<path d="M87.1782 443.336L86.0653 443.985L87.1782 444.541V443.336Z" fill="white"/>
<path d="M80.4085 431.663L79.3883 431.107V432.311L80.4085 431.663Z" fill="white"/>
<path d="M65.8476 406.74L65.0129 407.203L65.8476 407.759V406.74Z" fill="white"/>
<path d="M59.0768 394.972L58.2422 394.509V395.436L59.0768 394.972Z" fill="white"/>
<path d="M44.516 370.142L43.9595 370.42L44.516 370.79V370.142Z" fill="white"/>
<path d="M37.5606 358.19L37.0968 357.912V358.468L37.5606 358.19Z" fill="white"/>
<path d="M129.84 540.991L128.171 541.917L129.84 542.936V540.991Z" fill="white"/>
<path d="M123.348 529.687L121.679 528.668V530.707L123.348 529.687Z" fill="white"/>
<path d="M108.602 504.301L107.025 505.228L108.602 506.154V504.301Z" fill="white"/>
<path d="M102.018 492.998L100.441 492.071V493.832L102.018 492.998Z" fill="white"/>
<path d="M87.271 467.612L85.8799 468.446L87.271 469.279V467.612Z" fill="white"/>
<path d="M80.687 456.215L79.2958 455.474V456.956L80.687 456.215Z" fill="white"/>
<path d="M66.0333 431.014L64.8276 431.663L66.0333 432.404V431.014Z" fill="white"/>
<path d="M59.2625 419.433L58.1496 418.784V420.081L59.2625 419.433Z" fill="white"/>
<path d="M44.6098 394.417L43.7751 394.973L44.6098 395.436V394.417Z" fill="white"/>
<path d="M37.8391 382.742L37.0043 382.279V383.113L37.8391 382.742Z" fill="white"/>
<path d="M123.534 554.24L121.586 553.128V555.352L123.534 554.24Z" fill="white"/>
<path d="M108.695 528.576L106.748 529.688L108.695 530.799V528.576Z" fill="white"/>
<path d="M102.203 517.458L100.348 516.346V518.57L102.203 517.458Z" fill="white"/>
<path d="M87.4567 491.978L85.6946 492.997L87.4567 494.016V491.978Z" fill="white"/>
<path d="M80.8717 480.675L79.2023 479.748V481.694L80.8717 480.675Z" fill="white"/>
<path d="M66.1261 455.381L64.5495 456.215L66.1261 457.049V455.381Z" fill="white"/>
<path d="M59.4482 443.985L58.0571 443.151V444.819L59.4482 443.985Z" fill="white"/>
<path d="M44.7945 418.784L43.4961 419.433L44.7945 420.174V418.784Z" fill="white"/>
<path d="M38.0248 407.202L36.9118 406.554V407.851L38.0248 407.202Z" fill="white"/>
<path d="M108.787 552.943L106.654 554.24L108.787 555.444V552.943Z" fill="white"/>
<path d="M102.388 541.917L100.255 540.713V543.215L102.388 541.917Z" fill="white"/>
<path d="M87.5496 516.253L85.4165 517.458L87.5496 518.662V516.253Z" fill="white"/>
<path d="M81.1502 505.227L79.1099 504.023V506.339L81.1502 505.227Z" fill="white"/>
<path d="M66.219 479.656L64.3641 480.675L66.219 481.787V479.656Z" fill="white"/>
<path d="M59.7268 468.445L57.9647 467.426V469.464L59.7268 468.445Z" fill="white"/>
<path d="M44.8874 443.059L43.3108 443.985L44.8874 444.912V443.059Z" fill="white"/>
<path d="M38.2104 431.662L36.8193 430.828V432.496L38.2104 431.662Z" fill="white"/>
<path d="M87.6424 540.62L85.3238 541.918L87.6424 543.307V540.62Z" fill="white"/>
<path d="M81.243 529.687L79.0172 528.39V530.984L81.243 529.687Z" fill="white"/>
<path d="M66.3118 503.93L64.1787 505.227L66.3118 506.432V503.93Z" fill="white"/>
<path d="M59.9124 492.997L57.7794 491.793V494.202L59.9124 492.997Z" fill="white"/>
<path d="M44.9802 467.333L43.0326 468.445L44.9802 469.557V467.333Z" fill="white"/>
<path d="M38.488 456.215L36.6331 455.196V457.234L38.488 456.215Z" fill="white"/>
<path d="M81.4287 554.24L78.9246 552.758V555.63L81.4287 554.24Z" fill="white"/>
<path d="M66.4037 528.298L63.8996 529.688L66.4037 531.17V528.298Z" fill="white"/>
<path d="M60.0971 517.457L57.6858 516.068V518.847L60.0971 517.457Z" fill="white"/>
<path d="M45.1659 491.608L42.8473 492.998L45.1659 494.295V491.608Z" fill="white"/>
<path d="M38.7665 480.675L36.5407 479.471V481.972L38.7665 480.675Z" fill="white"/>
<path d="M66.4965 552.665L63.807 554.24L66.4965 555.815V552.665Z" fill="white"/>
<path d="M60.3757 541.918L57.5934 540.343V543.493L60.3757 541.918Z" fill="white"/>
<path d="M45.2587 515.975L42.6619 517.458L45.2587 518.94V515.975Z" fill="white"/>
<path d="M38.9522 505.227L36.4481 503.745V506.617L38.9522 505.227Z" fill="white"/>
<path d="M45.2587 540.343L42.4764 541.918L45.2587 543.586V540.343Z" fill="white"/>
<path d="M39.1379 529.688L36.3556 528.112V531.355L39.1379 529.688Z" fill="white"/>
<path d="M39.3226 554.24L36.2621 552.479V556L39.3226 554.24Z" fill="white"/>
</g>
</svg>
