<svg width="25" height="24" viewBox="0 0 25 24" fill="none" xmlns="http://www.w3.org/2000/svg">
    <g opacity="0.9">
        <path fill-rule="evenodd" clip-rule="evenodd"
              d="M4.96967 4.46967C5.26256 4.17678 5.73744 4.17678 6.03033 4.46967L20.0303 18.4697C20.3232 18.7626 20.3232 19.2374 20.0303 19.5303C19.7374 19.8232 19.2626 19.8232 18.9697 19.5303L4.96967 5.53033C4.67678 5.23744 4.67678 4.76256 4.96967 4.46967Z"
              fill="#2a2a2a"/>
        <path d="M4.30048 3.76367L20.6993 20.1625" stroke="#2a2a2a" stroke-width="1.5"
              stroke-linecap="round"/>
        <circle cx="12.5" cy="12" r="3.23684" stroke="#2a2a2a" stroke-width="1.5"/>
        <path
                d="M21.0947 13.6334C19.1464 15.6502 15.9805 18.1833 12.5 18.1833C9.01957 18.1833 5.85361 15.6502 3.90533 13.6334C3.00668 12.7031 3.00668 11.2972 3.90533 10.3669C5.85361 8.35 9.01957 5.81689 12.5 5.81689C15.9805 5.81689 19.1464 8.35 21.0947 10.3669C21.9934 11.2972 21.9934 12.7031 21.0947 13.6334Z"
                stroke="#2a2a2a" stroke-width="1.5"/>
    </g>
</svg>