<svg width="167" height="76" viewBox="0 0 167 76" fill="none" xmlns="http://www.w3.org/2000/svg">
<path d="M6.59855 40.1392C5.72228 40.1392 4.89581 40.0695 4.11912 39.9301C3.34243 39.8007 2.67527 39.6264 2.11764 39.4073L3.73077 34.1049C4.44772 34.3439 5.09496 34.4833 5.6725 34.5231C6.25999 34.563 6.76285 34.4684 7.18107 34.2394C7.60924 34.0203 7.93784 33.627 8.16687 33.0594L8.45066 32.3723L0.29541 8.59364H7.94282L12.1698 24.9639H12.4088L16.6955 8.59364H24.3877L15.7396 33.7315C15.3214 34.9862 14.7289 36.0915 13.9622 37.0474C13.2054 38.0133 12.2246 38.77 11.0197 39.3177C9.8248 39.8654 8.35108 40.1392 6.59855 40.1392Z" fill="url(#paint0_linear_313_2178)"/>
<path d="M40.4369 17.3463V22.9624H27.8754V17.3463H40.4369ZM33.4466 8.59364V31.5359H26.1428V8.59364H33.4466ZM47.2478 31.969C44.8978 31.969 42.8814 31.4562 41.1986 30.4306C39.5257 29.4049 38.2362 27.996 37.3301 26.2036C36.4339 24.4013 35.9858 22.345 35.9858 20.0349C35.9858 17.7446 36.4339 15.7183 37.3301 13.9558C38.2362 12.1833 39.5257 10.7992 41.1986 9.80348C42.8814 8.79777 44.8978 8.29491 47.2478 8.29491C49.5879 8.29491 51.5943 8.79777 53.2672 9.80348C54.95 10.7992 56.2395 12.1833 57.1357 13.9558C58.0418 15.7183 58.4949 17.7446 58.4949 20.0349C58.4949 22.345 58.0418 24.4013 57.1357 26.2036C56.2395 27.996 54.95 29.4049 53.2672 30.4306C51.5943 31.4562 49.5879 31.969 47.2478 31.969ZM47.2478 26.1737C48.2934 26.1737 49.1298 25.9198 49.7571 25.412C50.3944 24.9041 50.8574 24.1922 51.1462 23.2761C51.435 22.35 51.5794 21.2696 51.5794 20.0349C51.5794 18.8101 51.435 17.7446 51.1462 16.8385C50.8574 15.9324 50.3944 15.2353 49.7571 14.7474C49.1298 14.2495 48.2934 14.0006 47.2478 14.0006C46.1923 14.0006 45.341 14.2446 44.6937 14.7325C44.0564 15.2204 43.5884 15.9174 43.2897 16.8236C43.0009 17.7197 42.8565 18.7902 42.8565 20.0349C42.8565 21.2895 43.0009 22.3749 43.2897 23.291C43.5884 24.2071 44.0564 24.9191 44.6937 25.4269C45.341 25.9248 46.1923 26.1737 47.2478 26.1737Z" fill="url(#paint1_linear_313_2178)"/>
<path d="M60.3619 14.1798V8.59364H81.8703V14.1798H74.5365V31.5359H67.6061V14.1798H60.3619Z" fill="url(#paint2_linear_313_2178)"/>
<path d="M101.527 17.2119V22.7832H89.7567V17.2119H101.527ZM92.266 8.59364V31.5359H85.3505V8.59364H92.266ZM105.933 8.59364V31.5359H99.062V8.59364H105.933Z" fill="url(#paint3_linear_313_2178)"/>
<path d="M114.652 15.2254H121.612C124.769 15.2254 127.243 15.9672 129.036 17.4509C130.828 18.9246 131.729 20.9261 131.739 23.4553C131.729 25.0983 131.316 26.5272 130.499 27.742C129.693 28.9469 128.533 29.8829 127.019 30.5501C125.516 31.2073 123.713 31.5359 121.612 31.5359H110.365V8.59364H117.281V25.9497H121.612C122.568 25.9497 123.355 25.7157 123.972 25.2477C124.589 24.7797 124.903 24.1772 124.913 23.4404C124.903 22.6637 124.589 22.0314 123.972 21.5435C123.355 21.0555 122.568 20.8116 121.612 20.8116H114.652V15.2254ZM133.8 31.5359V8.59364H141.104V31.5359H133.8Z" fill="url(#paint4_linear_313_2178)"/>
<path d="M152.646 22.0812L159.98 8.59364H167V31.5359H160.084V18.0035L152.766 31.5359H145.731V8.59364H152.646V22.0812ZM159.323 0.468262H164.132C164.122 2.34028 163.415 3.84388 162.011 4.97904C160.617 6.1142 158.725 6.68178 156.335 6.68178C153.946 6.68178 152.049 6.1142 150.645 4.97904C149.251 3.84388 148.559 2.34028 148.569 0.468262H153.333C153.323 1.12546 153.547 1.72291 154.005 2.26062C154.463 2.79833 155.24 3.06719 156.335 3.06719C157.401 3.06719 158.163 2.80331 158.621 2.27556C159.079 1.74781 159.313 1.14538 159.323 0.468262Z" fill="url(#paint5_linear_313_2178)"/>
<path d="M0.549328 75.5096V63.1125H2.26701C2.7848 62.8536 3.19804 62.3557 3.50673 61.6188C3.81541 60.872 4.05937 60.0007 4.23861 59.005C4.4278 57.9992 4.56721 56.9537 4.65682 55.8683C4.7564 54.773 4.84602 53.7424 4.92568 52.7765L5.46339 45.8012H24.0442V63.1125H27.6289V75.5096H20.6985V68.7435H7.65903V75.5096H0.549328ZM9.37671 63.1125H17.2332V51.2381H11.5574L11.4379 52.7765C11.2985 55.246 11.0795 57.3172 10.7807 58.99C10.482 60.6629 10.014 62.037 9.37671 63.1125Z" fill="url(#paint6_linear_313_2178)"/>
<path d="M41.7176 69.1766C39.3079 69.1766 37.2367 68.6837 35.5041 67.6979C33.7815 66.7022 32.4521 65.3181 31.5161 63.5456C30.5901 61.7632 30.127 59.697 30.127 57.347C30.127 54.9871 30.5901 52.9209 31.5161 51.1484C32.4521 49.366 33.7815 47.9819 35.5041 46.9961C37.2367 46.0004 39.3079 45.5025 41.7176 45.5025C44.1274 45.5025 46.1936 46.0004 47.9162 46.9961C49.6488 47.9819 50.9782 49.366 51.9042 51.1484C52.8402 52.9209 53.3083 54.9871 53.3083 57.347C53.3083 59.697 52.8402 61.7632 51.9042 63.5456C50.9782 65.3181 49.6488 66.7022 47.9162 67.6979C46.1936 68.6837 44.1274 69.1766 41.7176 69.1766ZM41.7625 63.6651C42.6387 63.6651 43.3806 63.3963 43.988 62.8585C44.5954 62.3208 45.0584 61.574 45.377 60.6181C45.7056 59.6622 45.8699 58.5569 45.8699 57.3022C45.8699 56.0277 45.7056 54.9124 45.377 53.9565C45.0584 53.0006 44.5954 52.2537 43.988 51.716C43.3806 51.1783 42.6387 50.9095 41.7625 50.9095C40.8563 50.9095 40.0896 51.1783 39.4623 51.716C38.8449 52.2537 38.3719 53.0006 38.0433 53.9565C37.7247 54.9124 37.5653 56.0277 37.5653 57.3022C37.5653 58.5569 37.7247 59.6622 38.0433 60.6181C38.3719 61.574 38.8449 62.3208 39.4623 62.8585C40.0896 63.3963 40.8563 63.6651 41.7625 63.6651Z" fill="url(#paint7_linear_313_2178)"/>
<path d="M70.9406 60.9467L76.5567 45.8012H81.9039L73.2856 68.7435H68.5956L60.2014 45.8012H65.5336L70.9406 60.9467ZM63.9653 45.8012V68.7435H57.0498V45.8012H63.9653ZM78.3341 68.7435V45.8012H85.16V68.7435H78.3341Z" fill="url(#paint8_linear_313_2178)"/>
<path d="M96.4967 59.2888L103.83 45.8012H110.851V68.7435H103.935V55.2111L96.6162 68.7435H89.5812V45.8012H96.4967V59.2888Z" fill="url(#paint9_linear_313_2178)"/>
<path d="M115.499 68.7435V45.8012H122.803V54.3448H124.416L129.988 45.8012H138.442L130.72 57.2873L138.516 68.7435H129.958L124.924 61.1259H122.803V68.7435H115.499Z" fill="url(#paint10_linear_313_2178)"/>
<defs>
<linearGradient id="paint0_linear_313_2178" x1="-3.62557" y1="75.5019" x2="170.291" y2="75.5079" gradientUnits="userSpaceOnUse">
<stop stop-color="#FF636E"/>
<stop offset="0.380208" stop-color="#FF766E"/>
<stop offset="0.697917" stop-color="#FC8E70"/>
<stop offset="1" stop-color="#FCAB73"/>
</linearGradient>
<linearGradient id="paint1_linear_313_2178" x1="-3.62557" y1="75.5019" x2="170.291" y2="75.5079" gradientUnits="userSpaceOnUse">
<stop stop-color="#FF636E"/>
<stop offset="0.380208" stop-color="#FF766E"/>
<stop offset="0.697917" stop-color="#FC8E70"/>
<stop offset="1" stop-color="#FCAB73"/>
</linearGradient>
<linearGradient id="paint2_linear_313_2178" x1="-3.62557" y1="75.5019" x2="170.291" y2="75.5079" gradientUnits="userSpaceOnUse">
<stop stop-color="#FF636E"/>
<stop offset="0.380208" stop-color="#FF766E"/>
<stop offset="0.697917" stop-color="#FC8E70"/>
<stop offset="1" stop-color="#FCAB73"/>
</linearGradient>
<linearGradient id="paint3_linear_313_2178" x1="-3.62557" y1="75.5019" x2="170.291" y2="75.5079" gradientUnits="userSpaceOnUse">
<stop stop-color="#FF636E"/>
<stop offset="0.380208" stop-color="#FF766E"/>
<stop offset="0.697917" stop-color="#FC8E70"/>
<stop offset="1" stop-color="#FCAB73"/>
</linearGradient>
<linearGradient id="paint4_linear_313_2178" x1="-3.62557" y1="75.5019" x2="170.291" y2="75.5079" gradientUnits="userSpaceOnUse">
<stop stop-color="#FF636E"/>
<stop offset="0.380208" stop-color="#FF766E"/>
<stop offset="0.697917" stop-color="#FC8E70"/>
<stop offset="1" stop-color="#FCAB73"/>
</linearGradient>
<linearGradient id="paint5_linear_313_2178" x1="-3.62557" y1="75.5019" x2="170.291" y2="75.5079" gradientUnits="userSpaceOnUse">
<stop stop-color="#FF636E"/>
<stop offset="0.380208" stop-color="#FF766E"/>
<stop offset="0.697917" stop-color="#FC8E70"/>
<stop offset="1" stop-color="#FCAB73"/>
</linearGradient>
<linearGradient id="paint6_linear_313_2178" x1="-3.62557" y1="75.5019" x2="170.291" y2="75.5079" gradientUnits="userSpaceOnUse">
<stop stop-color="#FF636E"/>
<stop offset="0.380208" stop-color="#FF766E"/>
<stop offset="0.697917" stop-color="#FC8E70"/>
<stop offset="1" stop-color="#FCAB73"/>
</linearGradient>
<linearGradient id="paint7_linear_313_2178" x1="-3.62557" y1="75.5019" x2="170.291" y2="75.5079" gradientUnits="userSpaceOnUse">
<stop stop-color="#FF636E"/>
<stop offset="0.380208" stop-color="#FF766E"/>
<stop offset="0.697917" stop-color="#FC8E70"/>
<stop offset="1" stop-color="#FCAB73"/>
</linearGradient>
<linearGradient id="paint8_linear_313_2178" x1="-3.62557" y1="75.5019" x2="170.291" y2="75.5079" gradientUnits="userSpaceOnUse">
<stop stop-color="#FF636E"/>
<stop offset="0.380208" stop-color="#FF766E"/>
<stop offset="0.697917" stop-color="#FC8E70"/>
<stop offset="1" stop-color="#FCAB73"/>
</linearGradient>
<linearGradient id="paint9_linear_313_2178" x1="-3.62557" y1="75.5019" x2="170.291" y2="75.5079" gradientUnits="userSpaceOnUse">
<stop stop-color="#FF636E"/>
<stop offset="0.380208" stop-color="#FF766E"/>
<stop offset="0.697917" stop-color="#FC8E70"/>
<stop offset="1" stop-color="#FCAB73"/>
</linearGradient>
<linearGradient id="paint10_linear_313_2178" x1="-3.62557" y1="75.5019" x2="170.291" y2="75.5079" gradientUnits="userSpaceOnUse">
<stop stop-color="#FF636E"/>
<stop offset="0.380208" stop-color="#FF766E"/>
<stop offset="0.697917" stop-color="#FC8E70"/>
<stop offset="1" stop-color="#FCAB73"/>
</linearGradient>
</defs>
</svg>
